<svg version="1.1" xmlns="http://www.w3.org/2000/svg" xmlns:xlink="http://www.w3.org/1999/xlink" width="933" height="308"><defs/><g><text fill="#eeeeee" stroke="none" font-family="Arial" font-size="24px" font-style="normal" font-weight="normal" text-decoration="none" x="0" y="0"></text><text fill="#eeeeee" stroke="none" font-family="Arial" font-size="24px" font-style="normal" font-weight="normal" text-decoration="none" x="0" y="30"></text><text fill="#eeeeee" stroke="none" font-family="Arial" font-size="24px" font-style="normal" font-weight="normal" text-decoration="none" x="0" y="60"></text><text fill="#eeeeee" stroke="none" font-family="Arial" font-size="24px" font-style="normal" font-weight="normal" text-decoration="none" x="0" y="90"></text><text fill="#eeeeee" stroke="none" font-family="Arial" font-size="24px" font-style="normal" font-weight="normal" text-decoration="none" x="0" y="120"></text><text fill="#eeeeee" stroke="none" font-family="Arial" font-size="24px" font-style="normal" font-weight="normal" text-decoration="none" x="0" y="150"></text><text fill="#eeeeee" stroke="none" font-family="Arial" font-size="24px" font-style="normal" font-weight="normal" text-decoration="none" x="0" y="180"></text><text fill="#eeeeee" stroke="none" font-family="Arial" font-size="24px" font-style="normal" font-weight="normal" text-decoration="none" x="0" y="210"></text><text fill="#eeeeee" stroke="none" font-family="Arial" font-size="24px" font-style="normal" font-weight="normal" text-decoration="none" x="0" y="240"></text><text fill="#eeeeee" stroke="none" font-family="Arial" font-size="24px" font-style="normal" font-weight="normal" text-decoration="none" x="0" y="270"></text><text fill="#eeeeee" stroke="none" font-family="Arial" font-size="24px" font-style="normal" font-weight="normal" text-decoration="none" x="0" y="300"></text><text fill="#eeeeee" stroke="none" font-family="Arial" font-size="24px" font-style="normal" font-weight="normal" text-decoration="none" x="200" y="0"></text><text fill="#eeeeee" stroke="none" font-family="Arial" font-size="24px" font-style="normal" font-weight="normal" text-decoration="none" x="200" y="30"></text><text fill="#eeeeee" stroke="none" font-family="Arial" font-size="24px" font-style="normal" font-weight="normal" text-decoration="none" x="200" y="60"></text><text fill="#eeeeee" stroke="none" font-family="Arial" font-size="24px" font-style="normal" font-weight="normal" text-decoration="none" x="200" y="90"></text><text fill="#eeeeee" stroke="none" font-family="Arial" font-size="24px" font-style="normal" font-weight="normal" text-decoration="none" x="200" y="120"></text><text fill="#eeeeee" stroke="none" font-family="Arial" font-size="24px" font-style="normal" font-weight="normal" text-decoration="none" x="200" y="150"></text><text fill="#eeeeee" stroke="none" font-family="Arial" font-size="24px" font-style="normal" font-weight="normal" text-decoration="none" x="200" y="180"></text><text fill="#eeeeee" stroke="none" font-family="Arial" font-size="24px" font-style="normal" font-weight="normal" text-decoration="none" x="200" y="210"></text><text fill="#eeeeee" stroke="none" font-family="Arial" font-size="24px" font-style="normal" font-weight="normal" text-decoration="none" x="200" y="240"></text><text fill="#eeeeee" stroke="none" font-family="Arial" font-size="24px" font-style="normal" font-weight="normal" text-decoration="none" x="200" y="270"></text><text fill="#eeeeee" stroke="none" font-family="Arial" font-size="24px" font-style="normal" font-weight="normal" text-decoration="none" x="200" y="300"></text><text fill="#eeeeee" stroke="none" font-family="Arial" font-size="24px" font-style="normal" font-weight="normal" text-decoration="none" x="400" y="0"></text><text fill="#eeeeee" stroke="none" font-family="Arial" font-size="24px" font-style="normal" font-weight="normal" text-decoration="none" x="400" y="30"></text><text fill="#eeeeee" stroke="none" font-family="Arial" font-size="24px" font-style="normal" font-weight="normal" text-decoration="none" x="400" y="60"></text><text fill="#eeeeee" stroke="none" font-family="Arial" font-size="24px" font-style="normal" font-weight="normal" text-decoration="none" x="400" y="90"></text><text fill="#eeeeee" stroke="none" font-family="Arial" font-size="24px" font-style="normal" font-weight="normal" text-decoration="none" x="400" y="120"></text><text fill="#eeeeee" stroke="none" font-family="Arial" font-size="24px" font-style="normal" font-weight="normal" text-decoration="none" x="400" y="150"></text><text fill="#eeeeee" stroke="none" font-family="Arial" font-size="24px" font-style="normal" font-weight="normal" text-decoration="none" x="400" y="180"></text><text fill="#eeeeee" stroke="none" font-family="Arial" font-size="24px" font-style="normal" font-weight="normal" text-decoration="none" x="400" y="210"></text><text fill="#eeeeee" stroke="none" font-family="Arial" font-size="24px" font-style="normal" font-weight="normal" text-decoration="none" x="400" y="240"></text><text fill="#eeeeee" stroke="none" font-family="Arial" font-size="24px" font-style="normal" font-weight="normal" text-decoration="none" x="400" y="270"></text><text fill="#eeeeee" stroke="none" font-family="Arial" font-size="24px" font-style="normal" font-weight="normal" text-decoration="none" x="400" y="300"></text><text fill="#eeeeee" stroke="none" font-family="Arial" font-size="24px" font-style="normal" font-weight="normal" text-decoration="none" x="600" y="0"></text><text fill="#eeeeee" stroke="none" font-family="Arial" font-size="24px" font-style="normal" font-weight="normal" text-decoration="none" x="600" y="30"></text><text fill="#eeeeee" stroke="none" font-family="Arial" font-size="24px" font-style="normal" font-weight="normal" text-decoration="none" x="600" y="60"></text><text fill="#eeeeee" stroke="none" font-family="Arial" font-size="24px" font-style="normal" font-weight="normal" text-decoration="none" x="600" y="90"></text><text fill="#eeeeee" stroke="none" font-family="Arial" font-size="24px" font-style="normal" font-weight="normal" text-decoration="none" x="600" y="120"></text><text fill="#eeeeee" stroke="none" font-family="Arial" font-size="24px" font-style="normal" font-weight="normal" text-decoration="none" x="600" y="150"></text><text fill="#eeeeee" stroke="none" font-family="Arial" font-size="24px" font-style="normal" font-weight="normal" text-decoration="none" x="600" y="180"></text><text fill="#eeeeee" stroke="none" font-family="Arial" font-size="24px" font-style="normal" font-weight="normal" text-decoration="none" x="600" y="210"></text><text fill="#eeeeee" stroke="none" font-family="Arial" font-size="24px" font-style="normal" font-weight="normal" text-decoration="none" x="600" y="240"></text><text fill="#eeeeee" stroke="none" font-family="Arial" font-size="24px" font-style="normal" font-weight="normal" text-decoration="none" x="600" y="270"></text><text fill="#eeeeee" stroke="none" font-family="Arial" font-size="24px" font-style="normal" font-weight="normal" text-decoration="none" x="600" y="300"></text><text fill="#eeeeee" stroke="none" font-family="Arial" font-size="24px" font-style="normal" font-weight="normal" text-decoration="none" x="800" y="0"></text><text fill="#eeeeee" stroke="none" font-family="Arial" font-size="24px" font-style="normal" font-weight="normal" text-decoration="none" x="800" y="30"></text><text fill="#eeeeee" stroke="none" font-family="Arial" font-size="24px" font-style="normal" font-weight="normal" text-decoration="none" x="800" y="60"></text><text fill="#eeeeee" stroke="none" font-family="Arial" font-size="24px" font-style="normal" font-weight="normal" text-decoration="none" x="800" y="90"></text><text fill="#eeeeee" stroke="none" font-family="Arial" font-size="24px" font-style="normal" font-weight="normal" text-decoration="none" x="800" y="120"></text><text fill="#eeeeee" stroke="none" font-family="Arial" font-size="24px" font-style="normal" font-weight="normal" text-decoration="none" x="800" y="150"></text><text fill="#eeeeee" stroke="none" font-family="Arial" font-size="24px" font-style="normal" font-weight="normal" text-decoration="none" x="800" y="180"></text><text fill="#eeeeee" stroke="none" font-family="Arial" font-size="24px" font-style="normal" font-weight="normal" text-decoration="none" x="800" y="210"></text><text fill="#eeeeee" stroke="none" font-family="Arial" font-size="24px" font-style="normal" font-weight="normal" text-decoration="none" x="800" y="240"></text><text fill="#eeeeee" stroke="none" font-family="Arial" font-size="24px" font-style="normal" font-weight="normal" text-decoration="none" x="800" y="270"></text><text fill="#eeeeee" stroke="none" font-family="Arial" font-size="24px" font-style="normal" font-weight="normal" text-decoration="none" x="800" y="300"></text><g transform="translate(-173,-222) scale(1,1)"><path fill="#C0C0C0" stroke="none" d="M 465 239 L 861 239 Q 871 239 871 249 L 871 493 Q 871 503 861 503 L 465 503 Q 455 503 455 493 L 455 249 Q 455 239 465 239 Z" opacity="0.2"/></g><g transform="translate(-173,-222) scale(1,1)"><path fill="#ffffff" stroke="none" d="M 458 232 L 854 232 Q 864 232 864 242 L 864 486 Q 864 496 854 496 L 458 496 Q 448 496 448 486 L 448 242 Q 448 232 458 232 Z"/></g><g transform="translate(-173,-222) scale(1,1)"><path fill="none" stroke="#000000" d="M 458 232 L 854 232 Q 864 232 864 242 L 864 486 Q 864 496 854 496 L 458 496 Q 448 496 448 486 L 448 242 Q 448 232 458 232 Z" stroke-miterlimit="10"/></g><g transform="translate(-173,-222) scale(1,1)"><path fill="none" stroke="#000000" d="M 448 255 L 864 255" stroke-miterlimit="10"/></g><g transform="translate(-173,-222) scale(1,1)"><g><path fill="none" stroke="none"/><text fill="#000000" stroke="none" font-family="Arial" font-size="13px" font-style="normal" font-weight="normal" text-decoration="none" x="639.013671875" y="276.5">Agent</text></g></g><g transform="translate(-173,-222) scale(1,1)"><g><path fill="none" stroke="none"/><text fill="#000000" stroke="none" font-family="Arial" font-size="13px" font-style="normal" font-weight="normal" text-decoration="none" x="656" y="249.5"></text></g></g><g transform="translate(-173,-222) scale(1,1)"><rect fill="#C0C0C0" stroke="none" x="519" y="295" width="288" height="112" opacity="0.2"/></g><g transform="translate(-173,-222) scale(1,1)"><rect fill="#ffffff" stroke="none" x="512" y="288" width="288" height="112"/></g><g transform="translate(-173,-222) scale(1,1)"><path fill="none" stroke="#000000" d="M 512 288 L 800 288 L 800 400 L 512 400 L 512 288 Z Z" stroke-miterlimit="10"/></g><g transform="translate(-173,-222) scale(1,1)"><g><path fill="none" stroke="none"/><text fill="#000000" stroke="none" font-family="Arial" font-size="13px" font-style="normal" font-weight="normal" text-decoration="none" x="656" y="305.5"></text></g></g><g transform="translate(-173,-222) scale(1,1)"><g><path fill="none" stroke="none"/><text fill="#000000" stroke="none" font-family="Arial" font-size="13px" font-style="normal" font-weight="normal" text-decoration="none" x="586.261474609375" y="310.5">Machine Learning Layer</text></g></g><g transform="translate(-173,-222) scale(1,1)"><g><path fill="none" stroke="none"/><text fill="#000000" stroke="none" font-family="Arial" font-size="13px" font-style="normal" font-weight="normal" text-decoration="none" x="367.5" y="-251.5"></text></g></g><g transform="translate(-173,-222) scale(1,1)"><rect fill="#C0C0C0" stroke="none" x="190" y="239" width="184" height="288" opacity="0.2"/></g><g transform="translate(-173,-222) scale(1,1)"><rect fill="#ffffff" stroke="none" x="183" y="232" width="184" height="288"/></g><g transform="translate(-173,-222) scale(1,1)"><path fill="none" stroke="#000000" d="M 183 232 L 367 232 L 367 520 L 183 520 L 183 232 Z Z" stroke-miterlimit="10"/></g><g transform="translate(-173,-222) scale(1,1)"><g><path fill="none" stroke="none"/><text fill="#000000" stroke="none" font-family="Arial" font-size="13px" font-style="normal" font-weight="normal" text-decoration="none" x="275" y="249.5"></text></g></g><g transform="translate(-173,-222) scale(1,1)"><g><path fill="none" stroke="none"/><text fill="#000000" stroke="none" font-family="Arial" font-size="13px" font-style="normal" font-weight="normal" text-decoration="none" x="220.438720703125" y="254.5">Presentation Layer</text></g></g><g transform="translate(-173,-222) scale(1,1)"><g><path fill="none" stroke="none"/><text fill="#000000" stroke="none" font-family="Arial" font-size="13px" font-style="normal" font-weight="normal" text-decoration="none" x="143.5" y="-123.5"></text></g></g><g transform="translate(-173,-222) scale(1,1)"><rect fill="#C0C0C0" stroke="none" x="229" y="287" width="106.4326171875" height="32" opacity="0.2"/></g><g transform="translate(-173,-222) scale(1,1)"><rect fill="#ffffff" stroke="none" x="222" y="280" width="106.4326171875" height="32"/></g><g transform="translate(-173,-222) scale(1,1)"><path fill="none" stroke="#000000" d="M 222 280 L 328.4326171875 280 L 328.4326171875 312 L 222 312 L 222 280 Z Z" stroke-miterlimit="10"/></g><g transform="translate(-173,-222) scale(1,1)"><g><path fill="none" stroke="none"/><text fill="#000000" stroke="none" font-family="Arial" font-size="13px" font-style="normal" font-weight="normal" text-decoration="none" x="275.21630859375" y="297.5"></text></g></g><g transform="translate(-173,-222) scale(1,1)"><g><path fill="none" stroke="none"/><text fill="#000000" stroke="none" font-family="Arial" font-size="13px" font-style="normal" font-weight="normal" text-decoration="none" x="261.96875" y="302.5">Web</text></g></g><g transform="translate(-173,-222) scale(1,1)"><g><path fill="none" stroke="none"/><text fill="#000000" stroke="none" font-family="Arial" font-size="13px" font-style="normal" font-weight="normal" text-decoration="none" x="183.5" y="148.5"></text></g></g><g transform="translate(-173,-222) scale(1,1)"><rect fill="#C0C0C0" stroke="none" x="229" y="337" width="106.4326171875" height="45" opacity="0.2"/></g><g transform="translate(-173,-222) scale(1,1)"><rect fill="#ffffff" stroke="none" x="222" y="330" width="106.4326171875" height="45"/></g><g transform="translate(-173,-222) scale(1,1)"><path fill="none" stroke="#000000" d="M 222 330 L 328.4326171875 330 L 328.4326171875 375 L 222 375 L 222 330 Z Z" stroke-miterlimit="10"/></g><g transform="translate(-173,-222) scale(1,1)"><g><path fill="none" stroke="none"/><text fill="#000000" stroke="none" font-family="Arial" font-size="13px" font-style="normal" font-weight="normal" text-decoration="none" x="275.21630859375" y="347.5"></text></g></g><g transform="translate(-173,-222) scale(1,1)"><g><path fill="none" stroke="none"/><text fill="#000000" stroke="none" font-family="Arial" font-size="13px" font-style="normal" font-weight="normal" text-decoration="none" x="246.6708984375" y="352.5">Facebook</text><text fill="#000000" stroke="none" font-family="Arial" font-size="13px" font-style="normal" font-weight="normal" text-decoration="none" x="243.062255859375" y="365.5">Messenger</text></g></g><g transform="translate(-173,-222) scale(1,1)"><g><path fill="none" stroke="none"/><text fill="#000000" stroke="none" font-family="Arial" font-size="13px" font-style="normal" font-weight="normal" text-decoration="none" x="183.5" y="148.5"></text></g></g><g transform="translate(-173,-222) scale(1,1)"><rect fill="#C0C0C0" stroke="none" x="229" y="463" width="106.4326171875" height="32" opacity="0.2"/></g><g transform="translate(-173,-222) scale(1,1)"><rect fill="#ffffff" stroke="none" x="222" y="456" width="106.4326171875" height="32"/></g><g transform="translate(-173,-222) scale(1,1)"><path fill="none" stroke="#000000" d="M 222 456 L 328.4326171875 456 L 328.4326171875 488 L 222 488 L 222 456 Z Z" stroke-miterlimit="10"/></g><g transform="translate(-173,-222) scale(1,1)"><g><path fill="none" stroke="none"/><text fill="#000000" stroke="none" font-family="Arial" font-size="13px" font-style="normal" font-weight="normal" text-decoration="none" x="275.21630859375" y="473.5"></text></g></g><g transform="translate(-173,-222) scale(1,1)"><g><path fill="none" stroke="none"/><text fill="#000000" stroke="none" font-family="Arial" font-size="13px" font-style="normal" font-weight="normal" text-decoration="none" x="248.483154296875" y="478.5">Telegram</text></g></g><g transform="translate(-173,-222) scale(1,1)"><g><path fill="none" stroke="none"/><text fill="#000000" stroke="none" font-family="Arial" font-size="13px" font-style="normal" font-weight="normal" text-decoration="none" x="183.5" y="228.5"></text></g></g><g transform="translate(-173,-222) scale(1,1)"><rect fill="#C0C0C0" stroke="none" x="229" y="400" width="106.4326171875" height="45" opacity="0.2"/></g><g transform="translate(-173,-222) scale(1,1)"><rect fill="#ffffff" stroke="none" x="222" y="393" width="106.4326171875" height="45"/></g><g transform="translate(-173,-222) scale(1,1)"><path fill="none" stroke="#000000" d="M 222 393 L 328.4326171875 393 L 328.4326171875 438 L 222 438 L 222 393 Z Z" stroke-miterlimit="10"/></g><g transform="translate(-173,-222) scale(1,1)"><g><path fill="none" stroke="none"/><text fill="#000000" stroke="none" font-family="Arial" font-size="13px" font-style="normal" font-weight="normal" text-decoration="none" x="275.21630859375" y="410.5"></text></g></g><g transform="translate(-173,-222) scale(1,1)"><g><path fill="none" stroke="none"/><text fill="#000000" stroke="none" font-family="Arial" font-size="13px" font-style="normal" font-weight="normal" text-decoration="none" x="254.25634765625" y="415.5">Google</text><text fill="#000000" stroke="none" font-family="Arial" font-size="13px" font-style="normal" font-weight="normal" text-decoration="none" x="248.844970703125" y="428.5">Assistant</text></g></g><g transform="translate(-173,-222) scale(1,1)"><g><path fill="none" stroke="none"/><text fill="#000000" stroke="none" font-family="Arial" font-size="13px" font-style="normal" font-weight="normal" text-decoration="none" x="183.5" y="116.5"></text></g></g><g transform="translate(-173,-222) scale(1,1)"><path fill="#C0C0C0" stroke="none" d="M 553 335 L 606.18994140625 335 Q 616.18994140625 335 616.18994140625 345 L 616.18994140625 380 Q 616.18994140625 390 606.18994140625 390 L 553 390 Q 543 390 543 380 L 543 345 Q 543 335 553 335 Z" opacity="0.2"/></g><g transform="translate(-173,-222) scale(1,1)"><path fill="#ffffff" stroke="none" d="M 546 328 L 599.18994140625 328 Q 609.18994140625 328 609.18994140625 338 L 609.18994140625 373 Q 609.18994140625 383 599.18994140625 383 L 546 383 Q 536 383 536 373 L 536 338 Q 536 328 546 328 Z"/></g><g transform="translate(-173,-222) scale(1,1)"><path fill="none" stroke="#000000" d="M 546 328 L 599.18994140625 328 Q 609.18994140625 328 609.18994140625 338 L 609.18994140625 373 Q 609.18994140625 383 599.18994140625 383 L 546 383 Q 536 383 536 373 L 536 338 Q 536 328 546 328 Z" stroke-miterlimit="10"/></g><g transform="translate(-173,-222) scale(1,1)"><path fill="none" stroke="#000000" d="M 536 351 L 609.18994140625 351" stroke-miterlimit="10"/></g><g transform="translate(-173,-222) scale(1,1)"><g><path fill="none" stroke="none"/><text fill="#000000" stroke="none" font-family="Arial" font-size="13px" font-style="normal" font-weight="normal" text-decoration="none" x="559.950439453125" y="372.5">NLP</text></g></g><g transform="translate(-173,-222) scale(1,1)"><g><path fill="none" stroke="none"/><text fill="#000000" stroke="none" font-family="Arial" font-size="13px" font-style="normal" font-weight="normal" text-decoration="none" x="572.594970703125" y="345.5"></text></g></g><g transform="translate(-173,-222) scale(1,1)"><path fill="#C0C0C0" stroke="none" d="M 673 335 L 773 335 Q 783 335 783 345 L 783 380 Q 783 390 773 390 L 673 390 Q 663 390 663 380 L 663 345 Q 663 335 673 335 Z" opacity="0.2"/></g><g transform="translate(-173,-222) scale(1,1)"><path fill="#ffffff" stroke="none" d="M 666 328 L 766 328 Q 776 328 776 338 L 776 373 Q 776 383 766 383 L 666 383 Q 656 383 656 373 L 656 338 Q 656 328 666 328 Z"/></g><g transform="translate(-173,-222) scale(1,1)"><path fill="none" stroke="#000000" d="M 666 328 L 766 328 Q 776 328 776 338 L 776 373 Q 776 383 766 383 L 666 383 Q 656 383 656 373 L 656 338 Q 656 328 666 328 Z" stroke-miterlimit="10"/></g><g transform="translate(-173,-222) scale(1,1)"><path fill="none" stroke="#000000" d="M 656 351 L 776 351" stroke-miterlimit="10"/></g><g transform="translate(-173,-222) scale(1,1)"><g><path fill="none" stroke="none"/><text fill="#000000" stroke="none" font-family="Arial" font-size="13px" font-style="normal" font-weight="normal" text-decoration="none" x="669.02734375" y="372.5">Decision Engine</text></g></g><g transform="translate(-173,-222) scale(1,1)"><g><path fill="none" stroke="none"/><text fill="#000000" stroke="none" font-family="Arial" font-size="13px" font-style="normal" font-weight="normal" text-decoration="none" x="716" y="345.5"></text></g></g><g transform="translate(-173,-222) scale(1,1)"><path fill="#C0C0C0" stroke="none" d="M 529 423 L 789 423 Q 799 423 799 433 L 799 469 Q 799 479 789 479 L 529 479 Q 519 479 519 469 L 519 433 Q 519 423 529 423 Z" opacity="0.2"/></g><g transform="translate(-173,-222) scale(1,1)"><path fill="#ffffff" stroke="none" d="M 522 416 L 782 416 Q 792 416 792 426 L 792 462 Q 792 472 782 472 L 522 472 Q 512 472 512 462 L 512 426 Q 512 416 522 416 Z"/></g><g transform="translate(-173,-222) scale(1,1)"><path fill="none" stroke="#000000" d="M 522 416 L 782 416 Q 792 416 792 426 L 792 462 Q 792 472 782 472 L 522 472 Q 512 472 512 462 L 512 426 Q 512 416 522 416 Z" stroke-miterlimit="10"/></g><g transform="translate(-173,-222) scale(1,1)"><path fill="none" stroke="#000000" d="M 512 439 L 792 439" stroke-miterlimit="10"/></g><g transform="translate(-173,-222) scale(1,1)"><g><path fill="none" stroke="none"/><text fill="#000000" stroke="none" font-family="Arial" font-size="13px" font-style="normal" font-weight="normal" text-decoration="none" x="638.635009765625" y="460.5">NLG</text></g></g><g transform="translate(-173,-222) scale(1,1)"><g><path fill="none" stroke="none"/><text fill="#000000" stroke="none" font-family="Arial" font-size="13px" font-style="normal" font-weight="normal" text-decoration="none" x="652" y="433.5"></text></g></g><g transform="translate(-173,-222) scale(1,1)"><rect fill="#C0C0C0" stroke="none" x="959" y="303" width="144" height="184" opacity="0.2"/></g><g transform="translate(-173,-222) scale(1,1)"><rect fill="#ffffff" stroke="none" x="952" y="296" width="144" height="184"/></g><g transform="translate(-173,-222) scale(1,1)"><path fill="none" stroke="#000000" d="M 952 296 L 1096 296 L 1096 480 L 952 480 L 952 296 Z Z" stroke-miterlimit="10"/></g><g transform="translate(-173,-222) scale(1,1)"><g><path fill="none" stroke="none"/><text fill="#000000" stroke="none" font-family="Arial" font-size="13px" font-style="normal" font-weight="normal" text-decoration="none" x="1024" y="313.5"></text></g></g><g transform="translate(-173,-222) scale(1,1)"><g><path fill="none" stroke="none"/><text fill="#000000" stroke="none" font-family="Arial" font-size="13px" font-style="normal" font-weight="normal" text-decoration="none" x="992.20458984375" y="318.5">Data Layer</text></g></g><g transform="translate(-173,-222) scale(1,1)"><g><path fill="none" stroke="none"/><text fill="#000000" stroke="none" font-family="Arial" font-size="13px" font-style="normal" font-weight="normal" text-decoration="none" x="591.5" y="316.5"></text></g></g><g transform="translate(-173,-222) scale(1,1)"><rect fill="#C0C0C0" stroke="none" x="983" y="343" width="96" height="45" opacity="0.2"/></g><g transform="translate(-173,-222) scale(1,1)"><rect fill="#ffffff" stroke="none" x="976" y="336" width="96" height="45"/></g><g transform="translate(-173,-222) scale(1,1)"><path fill="none" stroke="#000000" d="M 976 336 L 976 381" stroke-miterlimit="10"/></g><g transform="translate(-173,-222) scale(1,1)"><path fill="none" stroke="#000000" d="M 976 336 L 1072 336" stroke-miterlimit="10"/></g><g transform="translate(-173,-222) scale(1,1)"><path fill="none" stroke="#000000" d="M 976 381 L 1072 381" stroke-miterlimit="10"/></g><g transform="translate(-173,-222) scale(1,1)"><path fill="none" stroke="#000000" d="M 986 336 L 986 381" stroke-miterlimit="10"/></g><g transform="translate(-173,-222) scale(1,1)"><g><path fill="none" stroke="none"/><text fill="#000000" stroke="none" font-family="Arial" font-size="13px" font-style="normal" font-weight="normal" text-decoration="none" x="996.83642578125" y="358.5">Knowledge</text><text fill="#000000" stroke="none" font-family="Arial" font-size="13px" font-style="normal" font-weight="normal" text-decoration="none" x="997.931396484375" y="371.5">Repository</text></g></g><g transform="translate(-173,-222) scale(1,1)"><g><path fill="none" stroke="none"/><text fill="#000000" stroke="none" font-family="Arial" font-size="13px" font-style="normal" font-weight="normal" text-decoration="none" x="980.5" y="358.5"></text></g></g><g transform="translate(-173,-222) scale(1,1)"><rect fill="#C0C0C0" stroke="none" x="983" y="415" width="99.82080078125" height="45" opacity="0.2"/></g><g transform="translate(-173,-222) scale(1,1)"><rect fill="#ffffff" stroke="none" x="976" y="408" width="99.82080078125" height="45"/></g><g transform="translate(-173,-222) scale(1,1)"><path fill="none" stroke="#000000" d="M 976 408 L 976 453" stroke-miterlimit="10"/></g><g transform="translate(-173,-222) scale(1,1)"><path fill="none" stroke="#000000" d="M 976 408 L 1075.82080078125 408" stroke-miterlimit="10"/></g><g transform="translate(-173,-222) scale(1,1)"><path fill="none" stroke="#000000" d="M 976 453 L 1075.82080078125 453" stroke-miterlimit="10"/></g><g transform="translate(-173,-222) scale(1,1)"><path fill="none" stroke="#000000" d="M 986 408 L 986 453" stroke-miterlimit="10"/></g><g transform="translate(-173,-222) scale(1,1)"><g><path fill="none" stroke="none"/><text fill="#000000" stroke="none" font-family="Arial" font-size="13px" font-style="normal" font-weight="normal" text-decoration="none" x="995.5" y="430.5">Handcrafted</text><text fill="#000000" stroke="none" font-family="Arial" font-size="13px" font-style="normal" font-weight="normal" text-decoration="none" x="1002.00634765625" y="443.5">Scenarios</text></g></g><g transform="translate(-173,-222) scale(1,1)"><g><path fill="none" stroke="none"/><text fill="#000000" stroke="none" font-family="Arial" font-size="13px" font-style="normal" font-weight="normal" text-decoration="none" x="980.5" y="430.5"></text></g></g><g transform="translate(-173,-222) scale(1,1)"><path fill="none" stroke="#000000" d="M 609 368 L 656 368" stroke-miterlimit="10"/></g><g transform="translate(-173,-222) scale(1,1)"><path fill="#000000" stroke="none" d="M 645.8373251423759 372.209517756016 L 656 368 L 645.8373251423758 363.790482243984"/></g><g transform="translate(-173,-222) scale(1,1)"><path fill="none" stroke="#000000" d="M 645.8373251423759 372.209517756016 L 656 368 L 645.8373251423758 363.790482243984 L 645.8373251423759 372.209517756016" stroke-miterlimit="10"/></g><g transform="translate(-173,-222) scale(1,1)"><path fill="none" stroke="#000000" d="M 952 456 L 792 456" stroke-miterlimit="10"/></g><g transform="translate(-173,-222) scale(1,1)"><path fill="#000000" stroke="none" d="M 802.1626748576241 451.790482243984 L 792 456 L 802.1626748576241 460.209517756016"/></g><g transform="translate(-173,-222) scale(1,1)"><path fill="none" stroke="#000000" d="M 802.1626748576241 451.790482243984 L 792 456 L 802.1626748576241 460.209517756016 L 802.1626748576241 451.790482243984" stroke-miterlimit="10"/></g><g transform="translate(-173,-222) scale(1,1)"><path fill="none" stroke="#000000" d="M 512 456 L 367 456" stroke-miterlimit="10"/></g><g transform="translate(-173,-222) scale(1,1)"><path fill="#000000" stroke="none" d="M 377.16267485762415 451.790482243984 L 367 456 L 377.16267485762415 460.209517756016"/></g><g transform="translate(-173,-222) scale(1,1)"><path fill="none" stroke="#000000" d="M 377.16267485762415 451.790482243984 L 367 456 L 377.16267485762415 460.209517756016 L 377.16267485762415 451.790482243984" stroke-miterlimit="10"/></g><g transform="translate(-173,-222) scale(1,1)"><path fill="none" stroke="#000000" d="M 367 368 L 536 368" stroke-miterlimit="10"/></g><g transform="translate(-173,-222) scale(1,1)"><path fill="#000000" stroke="none" d="M 525.8373251423759 372.209517756016 L 536 368 L 525.8373251423758 363.790482243984"/></g><g transform="translate(-173,-222) scale(1,1)"><path fill="none" stroke="#000000" d="M 525.8373251423759 372.209517756016 L 536 368 L 525.8373251423758 363.790482243984 L 525.8373251423759 372.209517756016" stroke-miterlimit="10"/></g><g transform="translate(-173,-222) scale(1,1)"><path fill="none" stroke="#000000" d="M 776 368 L 952 368" stroke-miterlimit="10"/></g><g transform="translate(-173,-222) scale(1,1)"><path fill="#000000" stroke="none" d="M 941.8373251423759 372.209517756016 L 952 368 L 941.8373251423758 363.790482243984"/></g><g transform="translate(-173,-222) scale(1,1)"><path fill="none" stroke="#000000" d="M 941.8373251423759 372.209517756016 L 952 368 L 941.8373251423758 363.790482243984 L 941.8373251423759 372.209517756016" stroke-miterlimit="10"/></g></g></svg>