<svg version="1.1" xmlns="http://www.w3.org/2000/svg" xmlns:xlink="http://www.w3.org/1999/xlink" width="794" height="204"><defs/><g><text fill="#eeeeee" stroke="none" font-family="Arial" font-size="24px" font-style="normal" font-weight="normal" text-decoration="none" x="0" y="0"></text><text fill="#eeeeee" stroke="none" font-family="Arial" font-size="24px" font-style="normal" font-weight="normal" text-decoration="none" x="0" y="30"></text><text fill="#eeeeee" stroke="none" font-family="Arial" font-size="24px" font-style="normal" font-weight="normal" text-decoration="none" x="0" y="60"></text><text fill="#eeeeee" stroke="none" font-family="Arial" font-size="24px" font-style="normal" font-weight="normal" text-decoration="none" x="0" y="90"></text><text fill="#eeeeee" stroke="none" font-family="Arial" font-size="24px" font-style="normal" font-weight="normal" text-decoration="none" x="0" y="120"></text><text fill="#eeeeee" stroke="none" font-family="Arial" font-size="24px" font-style="normal" font-weight="normal" text-decoration="none" x="0" y="150"></text><text fill="#eeeeee" stroke="none" font-family="Arial" font-size="24px" font-style="normal" font-weight="normal" text-decoration="none" x="0" y="180"></text><text fill="#eeeeee" stroke="none" font-family="Arial" font-size="24px" font-style="normal" font-weight="normal" text-decoration="none" x="200" y="0"></text><text fill="#eeeeee" stroke="none" font-family="Arial" font-size="24px" font-style="normal" font-weight="normal" text-decoration="none" x="200" y="30"></text><text fill="#eeeeee" stroke="none" font-family="Arial" font-size="24px" font-style="normal" font-weight="normal" text-decoration="none" x="200" y="60"></text><text fill="#eeeeee" stroke="none" font-family="Arial" font-size="24px" font-style="normal" font-weight="normal" text-decoration="none" x="200" y="90"></text><text fill="#eeeeee" stroke="none" font-family="Arial" font-size="24px" font-style="normal" font-weight="normal" text-decoration="none" x="200" y="120"></text><text fill="#eeeeee" stroke="none" font-family="Arial" font-size="24px" font-style="normal" font-weight="normal" text-decoration="none" x="200" y="150"></text><text fill="#eeeeee" stroke="none" font-family="Arial" font-size="24px" font-style="normal" font-weight="normal" text-decoration="none" x="200" y="180"></text><text fill="#eeeeee" stroke="none" font-family="Arial" font-size="24px" font-style="normal" font-weight="normal" text-decoration="none" x="400" y="0"></text><text fill="#eeeeee" stroke="none" font-family="Arial" font-size="24px" font-style="normal" font-weight="normal" text-decoration="none" x="400" y="30"></text><text fill="#eeeeee" stroke="none" font-family="Arial" font-size="24px" font-style="normal" font-weight="normal" text-decoration="none" x="400" y="60"></text><text fill="#eeeeee" stroke="none" font-family="Arial" font-size="24px" font-style="normal" font-weight="normal" text-decoration="none" x="400" y="90"></text><text fill="#eeeeee" stroke="none" font-family="Arial" font-size="24px" font-style="normal" font-weight="normal" text-decoration="none" x="400" y="120"></text><text fill="#eeeeee" stroke="none" font-family="Arial" font-size="24px" font-style="normal" font-weight="normal" text-decoration="none" x="400" y="150"></text><text fill="#eeeeee" stroke="none" font-family="Arial" font-size="24px" font-style="normal" font-weight="normal" text-decoration="none" x="400" y="180"></text><text fill="#eeeeee" stroke="none" font-family="Arial" font-size="24px" font-style="normal" font-weight="normal" text-decoration="none" x="600" y="0"></text><text fill="#eeeeee" stroke="none" font-family="Arial" font-size="24px" font-style="normal" font-weight="normal" text-decoration="none" x="600" y="30"></text><text fill="#eeeeee" stroke="none" font-family="Arial" font-size="24px" font-style="normal" font-weight="normal" text-decoration="none" x="600" y="60"></text><text fill="#eeeeee" stroke="none" font-family="Arial" font-size="24px" font-style="normal" font-weight="normal" text-decoration="none" x="600" y="90"></text><text fill="#eeeeee" stroke="none" font-family="Arial" font-size="24px" font-style="normal" font-weight="normal" text-decoration="none" x="600" y="120"></text><text fill="#eeeeee" stroke="none" font-family="Arial" font-size="24px" font-style="normal" font-weight="normal" text-decoration="none" x="600" y="150"></text><text fill="#eeeeee" stroke="none" font-family="Arial" font-size="24px" font-style="normal" font-weight="normal" text-decoration="none" x="600" y="180"></text><g transform="translate(-118,-166) scale(1,1)"><rect fill="#C0C0C0" stroke="none" x="135" y="183" width="106.4326171875" height="176" opacity="0.2"/></g><g transform="translate(-118,-166) scale(1,1)"><rect fill="#ffffff" stroke="none" x="128" y="176" width="106.4326171875" height="176"/></g><g transform="translate(-118,-166) scale(1,1)"><path fill="none" stroke="#000000" d="M 128 176 L 234.4326171875 176 L 234.4326171875 352 L 128 352 L 128 176 Z Z" stroke-miterlimit="10"/></g><g transform="translate(-118,-166) scale(1,1)"><g><path fill="none" stroke="none"/><text fill="#000000" stroke="none" font-family="Arial" font-size="13px" font-style="normal" font-weight="normal" text-decoration="none" x="181.21630859375" y="193.5"></text></g></g><g transform="translate(-118,-166) scale(1,1)"><g><path fill="none" stroke="none"/><text fill="#000000" stroke="none" font-family="Arial" font-size="13px" font-style="normal" font-weight="normal" text-decoration="none" x="167.49267578125" y="198.5">User</text></g></g><g transform="translate(-118,-166) scale(1,1)"><g><path fill="none" stroke="none"/><text fill="#000000" stroke="none" font-family="Arial" font-size="13px" font-style="normal" font-weight="normal" text-decoration="none" x="-0.5" y="12.5"></text></g></g><g transform="translate(-118,-166) scale(1,1)"><rect fill="#C0C0C0" stroke="none" x="287" y="199" width="160" height="45" opacity="0.2"/></g><g transform="translate(-118,-166) scale(1,1)"><rect fill="#ffffff" stroke="none" x="280" y="192" width="160" height="45"/></g><g transform="translate(-118,-166) scale(1,1)"><path fill="none" stroke="#000000" d="M 280 192 L 440 192 L 440 237 L 280 237 L 280 192 Z Z" stroke-miterlimit="10"/></g><g transform="translate(-118,-166) scale(1,1)"><g><path fill="none" stroke="none"/><text fill="#000000" stroke="none" font-family="Arial" font-size="13px" font-style="normal" font-weight="normal" text-decoration="none" x="360" y="209.5"></text></g></g><g transform="translate(-118,-166) scale(1,1)"><g><path fill="none" stroke="none"/><text fill="#000000" stroke="none" font-family="Arial" font-size="13px" font-style="normal" font-weight="normal" text-decoration="none" x="292.794189453125" y="214.5">Keyboard / Microphone</text></g></g><g transform="translate(-118,-166) scale(1,1)"><g><path fill="none" stroke="none"/><text fill="#000000" stroke="none" font-family="Arial" font-size="13px" font-style="normal" font-weight="normal" text-decoration="none" x="-0.5" y="20.5"></text></g></g><g transform="translate(-118,-166) scale(1,1)"><rect fill="#C0C0C0" stroke="none" x="287" y="279" width="160" height="45" opacity="0.2"/></g><g transform="translate(-118,-166) scale(1,1)"><rect fill="#ffffff" stroke="none" x="280" y="272" width="160" height="45"/></g><g transform="translate(-118,-166) scale(1,1)"><path fill="none" stroke="#000000" d="M 280 272 L 440 272 L 440 317 L 280 317 L 280 272 Z Z" stroke-miterlimit="10"/></g><g transform="translate(-118,-166) scale(1,1)"><g><path fill="none" stroke="none"/><text fill="#000000" stroke="none" font-family="Arial" font-size="13px" font-style="normal" font-weight="normal" text-decoration="none" x="360" y="289.5"></text></g></g><g transform="translate(-118,-166) scale(1,1)"><g><path fill="none" stroke="none"/><text fill="#000000" stroke="none" font-family="Arial" font-size="13px" font-style="normal" font-weight="normal" text-decoration="none" x="309.77734375" y="294.5">Speaker / Screen</text></g></g><g transform="translate(-118,-166) scale(1,1)"><g><path fill="none" stroke="none"/><text fill="#000000" stroke="none" font-family="Arial" font-size="13px" font-style="normal" font-weight="normal" text-decoration="none" x="-8.5" y="20.5"></text></g></g><g transform="translate(-118,-166) scale(1,1)"><path fill="#C0C0C0" stroke="none" d="M 505 191 L 558.18994140625 191 Q 568.18994140625 191 568.18994140625 201 L 568.18994140625 236 Q 568.18994140625 246 558.18994140625 246 L 505 246 Q 495 246 495 236 L 495 201 Q 495 191 505 191 Z" opacity="0.2"/></g><g transform="translate(-118,-166) scale(1,1)"><path fill="#ffffff" stroke="none" d="M 498 184 L 551.18994140625 184 Q 561.18994140625 184 561.18994140625 194 L 561.18994140625 229 Q 561.18994140625 239 551.18994140625 239 L 498 239 Q 488 239 488 229 L 488 194 Q 488 184 498 184 Z"/></g><g transform="translate(-118,-166) scale(1,1)"><path fill="none" stroke="#000000" d="M 498 184 L 551.18994140625 184 Q 561.18994140625 184 561.18994140625 194 L 561.18994140625 229 Q 561.18994140625 239 551.18994140625 239 L 498 239 Q 488 239 488 229 L 488 194 Q 488 184 498 184 Z" stroke-miterlimit="10"/></g><g transform="translate(-118,-166) scale(1,1)"><path fill="none" stroke="#000000" d="M 488 207 L 561.18994140625 207" stroke-miterlimit="10"/></g><g transform="translate(-118,-166) scale(1,1)"><g><path fill="none" stroke="none"/><text fill="#000000" stroke="none" font-family="Arial" font-size="13px" font-style="normal" font-weight="normal" text-decoration="none" x="506.89453125" y="228.5">Query</text></g></g><g transform="translate(-118,-166) scale(1,1)"><g><path fill="none" stroke="none"/><text fill="#000000" stroke="none" font-family="Arial" font-size="13px" font-style="normal" font-weight="normal" text-decoration="none" x="524.594970703125" y="201.5"></text></g></g><g transform="translate(-118,-166) scale(1,1)"><path fill="#C0C0C0" stroke="none" d="M 601 191 L 709 191 Q 719 191 719 201 L 719 236 Q 719 246 709 246 L 601 246 Q 591 246 591 236 L 591 201 Q 591 191 601 191 Z" opacity="0.2"/></g><g transform="translate(-118,-166) scale(1,1)"><path fill="#ffffff" stroke="none" d="M 594 184 L 702 184 Q 712 184 712 194 L 712 229 Q 712 239 702 239 L 594 239 Q 584 239 584 229 L 584 194 Q 584 184 594 184 Z"/></g><g transform="translate(-118,-166) scale(1,1)"><path fill="none" stroke="#000000" d="M 594 184 L 702 184 Q 712 184 712 194 L 712 229 Q 712 239 702 239 L 594 239 Q 584 239 584 229 L 584 194 Q 584 184 594 184 Z" stroke-miterlimit="10"/></g><g transform="translate(-118,-166) scale(1,1)"><path fill="none" stroke="#000000" d="M 584 207 L 712 207" stroke-miterlimit="10"/></g><g transform="translate(-118,-166) scale(1,1)"><g><path fill="none" stroke="none"/><text fill="#000000" stroke="none" font-family="Arial" font-size="13px" font-style="normal" font-weight="normal" text-decoration="none" x="603.556884765625" y="228.5">Intent Matching</text></g></g><g transform="translate(-118,-166) scale(1,1)"><g><path fill="none" stroke="none"/><text fill="#000000" stroke="none" font-family="Arial" font-size="13px" font-style="normal" font-weight="normal" text-decoration="none" x="648" y="201.5"></text></g></g><g transform="translate(-118,-166) scale(1,1)"><path fill="#C0C0C0" stroke="none" d="M 601 279 L 709 279 Q 719 279 719 289 L 719 324 Q 719 334 709 334 L 601 334 Q 591 334 591 324 L 591 289 Q 591 279 601 279 Z" opacity="0.2"/></g><g transform="translate(-118,-166) scale(1,1)"><path fill="#ffffff" stroke="none" d="M 594 272 L 702 272 Q 712 272 712 282 L 712 317 Q 712 327 702 327 L 594 327 Q 584 327 584 317 L 584 282 Q 584 272 594 272 Z"/></g><g transform="translate(-118,-166) scale(1,1)"><path fill="none" stroke="#000000" d="M 594 272 L 702 272 Q 712 272 712 282 L 712 317 Q 712 327 702 327 L 594 327 Q 584 327 584 317 L 584 282 Q 584 272 594 272 Z" stroke-miterlimit="10"/></g><g transform="translate(-118,-166) scale(1,1)"><path fill="none" stroke="#000000" d="M 584 295 L 712 295" stroke-miterlimit="10"/></g><g transform="translate(-118,-166) scale(1,1)"><g><path fill="none" stroke="none"/><text fill="#000000" stroke="none" font-family="Arial" font-size="13px" font-style="normal" font-weight="normal" text-decoration="none" x="595.977783203125" y="316.5">Entities Extraction</text></g></g><g transform="translate(-118,-166) scale(1,1)"><g><path fill="none" stroke="none"/><text fill="#000000" stroke="none" font-family="Arial" font-size="13px" font-style="normal" font-weight="normal" text-decoration="none" x="648" y="289.5"></text></g></g><g transform="translate(-118,-166) scale(1,1)"><rect fill="#C0C0C0" stroke="none" x="765" y="183" width="144" height="184" opacity="0.2"/></g><g transform="translate(-118,-166) scale(1,1)"><rect fill="#ffffff" stroke="none" x="758" y="176" width="144" height="184"/></g><g transform="translate(-118,-166) scale(1,1)"><path fill="none" stroke="#000000" d="M 758 176 L 902 176 L 902 360 L 758 360 L 758 176 Z Z" stroke-miterlimit="10"/></g><g transform="translate(-118,-166) scale(1,1)"><g><path fill="none" stroke="none"/><text fill="#000000" stroke="none" font-family="Arial" font-size="13px" font-style="normal" font-weight="normal" text-decoration="none" x="830" y="193.5"></text></g></g><g transform="translate(-118,-166) scale(1,1)"><g><path fill="none" stroke="none"/><text fill="#000000" stroke="none" font-family="Arial" font-size="13px" font-style="normal" font-weight="normal" text-decoration="none" x="-194.5" y="-107.5"></text></g></g><g transform="translate(-118,-166) scale(1,1)"><g><path fill="none" stroke="none"/><text fill="#000000" stroke="none" font-family="Arial" font-size="13px" font-style="normal" font-weight="normal" text-decoration="none" x="830" y="193.5"></text></g></g><g transform="translate(-118,-166) scale(1,1)"><g><path fill="none" stroke="none"/><text fill="#000000" stroke="none" font-family="Arial" font-size="13px" font-style="normal" font-weight="normal" text-decoration="none" x="798.20458984375" y="198.5">Data Layer</text></g></g><g transform="translate(-118,-166) scale(1,1)"><g><path fill="none" stroke="none"/><text fill="#000000" stroke="none" font-family="Arial" font-size="13px" font-style="normal" font-weight="normal" text-decoration="none" x="397.5" y="196.5"></text></g></g><g transform="translate(-118,-166) scale(1,1)"><rect fill="#C0C0C0" stroke="none" x="791" y="223" width="96" height="45" opacity="0.2"/></g><g transform="translate(-118,-166) scale(1,1)"><rect fill="#ffffff" stroke="none" x="784" y="216" width="96" height="45"/></g><g transform="translate(-118,-166) scale(1,1)"><path fill="none" stroke="#000000" d="M 784 216 L 784 261" stroke-miterlimit="10"/></g><g transform="translate(-118,-166) scale(1,1)"><path fill="none" stroke="#000000" d="M 784 216 L 880 216" stroke-miterlimit="10"/></g><g transform="translate(-118,-166) scale(1,1)"><path fill="none" stroke="#000000" d="M 784 261 L 880 261" stroke-miterlimit="10"/></g><g transform="translate(-118,-166) scale(1,1)"><path fill="none" stroke="#000000" d="M 794 216 L 794 261" stroke-miterlimit="10"/></g><g transform="translate(-118,-166) scale(1,1)"><g><path fill="none" stroke="none"/><text fill="#000000" stroke="none" font-family="Arial" font-size="13px" font-style="normal" font-weight="normal" text-decoration="none" x="804.83642578125" y="238.5">Knowledge</text><text fill="#000000" stroke="none" font-family="Arial" font-size="13px" font-style="normal" font-weight="normal" text-decoration="none" x="805.931396484375" y="251.5">Repository</text></g></g><g transform="translate(-118,-166) scale(1,1)"><g><path fill="none" stroke="none"/><text fill="#000000" stroke="none" font-family="Arial" font-size="13px" font-style="normal" font-weight="normal" text-decoration="none" x="788.5" y="238.5"></text></g></g><g transform="translate(-118,-166) scale(1,1)"><rect fill="#C0C0C0" stroke="none" x="789" y="287" width="99.82080078125" height="45" opacity="0.2"/></g><g transform="translate(-118,-166) scale(1,1)"><rect fill="#ffffff" stroke="none" x="782" y="280" width="99.82080078125" height="45"/></g><g transform="translate(-118,-166) scale(1,1)"><path fill="none" stroke="#000000" d="M 782 280 L 782 325" stroke-miterlimit="10"/></g><g transform="translate(-118,-166) scale(1,1)"><path fill="none" stroke="#000000" d="M 782 280 L 881.82080078125 280" stroke-miterlimit="10"/></g><g transform="translate(-118,-166) scale(1,1)"><path fill="none" stroke="#000000" d="M 782 325 L 881.82080078125 325" stroke-miterlimit="10"/></g><g transform="translate(-118,-166) scale(1,1)"><path fill="none" stroke="#000000" d="M 792 280 L 792 325" stroke-miterlimit="10"/></g><g transform="translate(-118,-166) scale(1,1)"><g><path fill="none" stroke="none"/><text fill="#000000" stroke="none" font-family="Arial" font-size="13px" font-style="normal" font-weight="normal" text-decoration="none" x="801.5" y="302.5">Handcrafted</text><text fill="#000000" stroke="none" font-family="Arial" font-size="13px" font-style="normal" font-weight="normal" text-decoration="none" x="808.00634765625" y="315.5">Scenarios</text></g></g><g transform="translate(-118,-166) scale(1,1)"><g><path fill="none" stroke="none"/><text fill="#000000" stroke="none" font-family="Arial" font-size="13px" font-style="normal" font-weight="normal" text-decoration="none" x="786.5" y="302.5"></text></g></g><g transform="translate(-118,-166) scale(1,1)"><path fill="#C0C0C0" stroke="none" d="M 505 279 L 558.18994140625 279 Q 568.18994140625 279 568.18994140625 289 L 568.18994140625 324 Q 568.18994140625 334 558.18994140625 334 L 505 334 Q 495 334 495 324 L 495 289 Q 495 279 505 279 Z" opacity="0.2"/></g><g transform="translate(-118,-166) scale(1,1)"><path fill="#ffffff" stroke="none" d="M 498 272 L 551.18994140625 272 Q 561.18994140625 272 561.18994140625 282 L 561.18994140625 317 Q 561.18994140625 327 551.18994140625 327 L 498 327 Q 488 327 488 317 L 488 282 Q 488 272 498 272 Z"/></g><g transform="translate(-118,-166) scale(1,1)"><path fill="none" stroke="#000000" d="M 498 272 L 551.18994140625 272 Q 561.18994140625 272 561.18994140625 282 L 561.18994140625 317 Q 561.18994140625 327 551.18994140625 327 L 498 327 Q 488 327 488 317 L 488 282 Q 488 272 498 272 Z" stroke-miterlimit="10"/></g><g transform="translate(-118,-166) scale(1,1)"><path fill="none" stroke="#000000" d="M 488 295 L 561.18994140625 295" stroke-miterlimit="10"/></g><g transform="translate(-118,-166) scale(1,1)"><g><path fill="none" stroke="none"/><text fill="#000000" stroke="none" font-family="Arial" font-size="13px" font-style="normal" font-weight="normal" text-decoration="none" x="506.529541015625" y="316.5">Action</text></g></g><g transform="translate(-118,-166) scale(1,1)"><g><path fill="none" stroke="none"/><text fill="#000000" stroke="none" font-family="Arial" font-size="13px" font-style="normal" font-weight="normal" text-decoration="none" x="524.594970703125" y="289.5"></text></g></g><g transform="translate(-118,-166) scale(1,1)"><path fill="none" stroke="#000000" d="M 234 216 L 280 216" stroke-miterlimit="10"/></g><g transform="translate(-118,-166) scale(1,1)"><path fill="#000000" stroke="none" d="M 269.83732514237585 220.209517756016 L 280 216 L 269.83732514237585 211.790482243984"/></g><g transform="translate(-118,-166) scale(1,1)"><path fill="none" stroke="#000000" d="M 269.83732514237585 220.209517756016 L 280 216 L 269.83732514237585 211.790482243984 L 269.83732514237585 220.209517756016" stroke-miterlimit="10"/></g><g transform="translate(-118,-166) scale(1,1)"><path fill="none" stroke="#000000" d="M 280 296 L 234 296" stroke-miterlimit="10"/></g><g transform="translate(-118,-166) scale(1,1)"><path fill="#000000" stroke="none" d="M 244.16267485762415 291.790482243984 L 234 296 L 244.16267485762415 300.209517756016"/></g><g transform="translate(-118,-166) scale(1,1)"><path fill="none" stroke="#000000" d="M 244.16267485762415 291.790482243984 L 234 296 L 244.16267485762415 300.209517756016 L 244.16267485762415 291.790482243984" stroke-miterlimit="10"/></g><g transform="translate(-118,-166) scale(1,1)"><path fill="none" stroke="#000000" d="M 440 224 L 488 224" stroke-miterlimit="10"/></g><g transform="translate(-118,-166) scale(1,1)"><path fill="#000000" stroke="none" d="M 477.83732514237585 228.209517756016 L 488 224 L 477.83732514237585 219.790482243984"/></g><g transform="translate(-118,-166) scale(1,1)"><path fill="none" stroke="#000000" d="M 477.83732514237585 228.209517756016 L 488 224 L 477.83732514237585 219.790482243984 L 477.83732514237585 228.209517756016" stroke-miterlimit="10"/></g><g transform="translate(-118,-166) scale(1,1)"><path fill="none" stroke="#000000" d="M 561 227 L 584 227" stroke-miterlimit="10"/></g><g transform="translate(-118,-166) scale(1,1)"><path fill="#000000" stroke="none" d="M 573.8373251423759 231.209517756016 L 584 227 L 573.8373251423758 222.790482243984"/></g><g transform="translate(-118,-166) scale(1,1)"><path fill="none" stroke="#000000" d="M 573.8373251423759 231.209517756016 L 584 227 L 573.8373251423758 222.790482243984 L 573.8373251423759 231.209517756016" stroke-miterlimit="10"/></g><g transform="translate(-118,-166) scale(1,1)"><path fill="none" stroke="#000000" d="M 648 239 L 648 272" stroke-miterlimit="10"/></g><g transform="translate(-118,-166) scale(1,1)"><path fill="#000000" stroke="none" d="M 643.790482243984 261.83732514237585 L 648 272 L 652.209517756016 261.83732514237585"/></g><g transform="translate(-118,-166) scale(1,1)"><path fill="none" stroke="#000000" d="M 643.790482243984 261.83732514237585 L 648 272 L 652.209517756016 261.83732514237585 L 643.790482243984 261.83732514237585" stroke-miterlimit="10"/></g><g transform="translate(-118,-166) scale(1,1)"><path fill="none" stroke="#000000" d="M 712 312 L 758 312" stroke-miterlimit="10"/></g><g transform="translate(-118,-166) scale(1,1)"><path fill="#000000" stroke="none" d="M 747.8373251423759 316.209517756016 L 758 312 L 747.8373251423758 307.790482243984"/></g><g transform="translate(-118,-166) scale(1,1)"><path fill="none" stroke="#000000" d="M 747.8373251423759 316.209517756016 L 758 312 L 747.8373251423758 307.790482243984 L 747.8373251423759 316.209517756016" stroke-miterlimit="10"/></g><g transform="translate(-118,-166) scale(1,1)"><path fill="none" stroke="#000000" d="M 758 344 L 536 344 M 536 344 A 8 8 0 0 1 528 336 L 528 327" stroke-miterlimit="10"/></g><g transform="translate(-118,-166) scale(1,1)"><path fill="#000000" stroke="none" d="M 532.209517756016 337.16267485762415 L 528 327 L 523.790482243984 337.16267485762415"/></g><g transform="translate(-118,-166) scale(1,1)"><path fill="none" stroke="#000000" d="M 532.209517756016 337.16267485762415 L 528 327 L 523.790482243984 337.16267485762415 L 532.209517756016 337.16267485762415" stroke-miterlimit="10"/></g><g transform="translate(-118,-166) scale(1,1)"><path fill="none" stroke="#000000" d="M 488 304 L 440 304" stroke-miterlimit="10"/></g><g transform="translate(-118,-166) scale(1,1)"><path fill="#000000" stroke="none" d="M 450.16267485762415 299.790482243984 L 440 304 L 450.16267485762415 308.209517756016"/></g><g transform="translate(-118,-166) scale(1,1)"><path fill="none" stroke="#000000" d="M 450.16267485762415 299.790482243984 L 440 304 L 450.16267485762415 308.209517756016 L 450.16267485762415 299.790482243984" stroke-miterlimit="10"/></g><g transform="translate(-118,-166) scale(1,1)"><rect fill="#C0C0C0" stroke="none" x="150" y="263" width="80" height="32" opacity="0.2"/></g><g transform="translate(-118,-166) scale(1,1)"><rect fill="#ffffff" stroke="none" x="143" y="256" width="80" height="32"/></g><g transform="translate(-118,-166) scale(1,1)"><path fill="none" stroke="#000000" d="M 143 256 L 223 256 L 223 288 L 143 288 L 143 256 Z Z" stroke-miterlimit="10"/></g><g transform="translate(-118,-166) scale(1,1)"><g><path fill="none" stroke="none"/><text fill="#000000" stroke="none" font-family="Arial" font-size="13px" font-style="normal" font-weight="normal" text-decoration="none" x="183" y="273.5"></text></g></g><g transform="translate(-118,-166) scale(1,1)"><g><path fill="none" stroke="none"/><text fill="#000000" stroke="none" font-family="Arial" font-size="13px" font-style="normal" font-weight="normal" text-decoration="none" x="154.45458984375" y="278.5">Facebook</text></g></g><g transform="translate(-118,-166) scale(1,1)"><g><path fill="none" stroke="none"/><text fill="#000000" stroke="none" font-family="Arial" font-size="13px" font-style="normal" font-weight="normal" text-decoration="none" x="47.5" y="-115.5"></text></g></g><g transform="translate(-118,-166) scale(1,1)"><rect fill="#C0C0C0" stroke="none" x="168" y="223" width="45.4951171875" height="32" opacity="0.2"/></g><g transform="translate(-118,-166) scale(1,1)"><rect fill="#ffffff" stroke="none" x="161" y="216" width="45.4951171875" height="32"/></g><g transform="translate(-118,-166) scale(1,1)"><path fill="none" stroke="#000000" d="M 161 216 L 206.4951171875 216 L 206.4951171875 248 L 161 248 L 161 216 Z Z" stroke-miterlimit="10"/></g><g transform="translate(-118,-166) scale(1,1)"><g><path fill="none" stroke="none"/><text fill="#000000" stroke="none" font-family="Arial" font-size="13px" font-style="normal" font-weight="normal" text-decoration="none" x="183.74755859375" y="233.5"></text></g></g><g transform="translate(-118,-166) scale(1,1)"><g><path fill="none" stroke="none"/><text fill="#000000" stroke="none" font-family="Arial" font-size="13px" font-style="normal" font-weight="normal" text-decoration="none" x="170.5" y="238.5">Web</text></g></g><g transform="translate(-118,-166) scale(1,1)"><g><path fill="none" stroke="none"/><text fill="#000000" stroke="none" font-family="Arial" font-size="13px" font-style="normal" font-weight="normal" text-decoration="none" x="47.5" y="-219.5"></text></g></g><g transform="translate(-118,-166) scale(1,1)"><rect fill="#C0C0C0" stroke="none" x="150" y="303" width="80" height="45" opacity="0.2"/></g><g transform="translate(-118,-166) scale(1,1)"><rect fill="#ffffff" stroke="none" x="143" y="296" width="80" height="45"/></g><g transform="translate(-118,-166) scale(1,1)"><path fill="none" stroke="#000000" d="M 143 296 L 223 296 L 223 341 L 143 341 L 143 296 Z Z" stroke-miterlimit="10"/></g><g transform="translate(-118,-166) scale(1,1)"><g><path fill="none" stroke="none"/><text fill="#000000" stroke="none" font-family="Arial" font-size="13px" font-style="normal" font-weight="normal" text-decoration="none" x="183" y="313.5"></text></g></g><g transform="translate(-118,-166) scale(1,1)"><g><path fill="none" stroke="none"/><text fill="#000000" stroke="none" font-family="Arial" font-size="13px" font-style="normal" font-weight="normal" text-decoration="none" x="162.0400390625" y="318.5">Google</text><text fill="#000000" stroke="none" font-family="Arial" font-size="13px" font-style="normal" font-weight="normal" text-decoration="none" x="156.628662109375" y="331.5">Assistant</text></g></g><g transform="translate(-118,-166) scale(1,1)"><g><path fill="none" stroke="none"/><text fill="#000000" stroke="none" font-family="Arial" font-size="13px" font-style="normal" font-weight="normal" text-decoration="none" x="23.5" y="-195.5"></text></g></g></g></svg>