<svg version="1.1" xmlns="http://www.w3.org/2000/svg" xmlns:xlink="http://www.w3.org/1999/xlink" width="730.05908203125" height="684"><defs/><g><text fill="#eeeeee" stroke="none" font-family="Arial" font-size="24px" font-style="normal" font-weight="normal" text-decoration="none" x="0" y="0"></text><text fill="#eeeeee" stroke="none" font-family="Arial" font-size="24px" font-style="normal" font-weight="normal" text-decoration="none" x="0" y="30"></text><text fill="#eeeeee" stroke="none" font-family="Arial" font-size="24px" font-style="normal" font-weight="normal" text-decoration="none" x="0" y="60"></text><text fill="#eeeeee" stroke="none" font-family="Arial" font-size="24px" font-style="normal" font-weight="normal" text-decoration="none" x="0" y="90"></text><text fill="#eeeeee" stroke="none" font-family="Arial" font-size="24px" font-style="normal" font-weight="normal" text-decoration="none" x="0" y="120"></text><text fill="#eeeeee" stroke="none" font-family="Arial" font-size="24px" font-style="normal" font-weight="normal" text-decoration="none" x="0" y="150"></text><text fill="#eeeeee" stroke="none" font-family="Arial" font-size="24px" font-style="normal" font-weight="normal" text-decoration="none" x="0" y="180"></text><text fill="#eeeeee" stroke="none" font-family="Arial" font-size="24px" font-style="normal" font-weight="normal" text-decoration="none" x="0" y="210"></text><text fill="#eeeeee" stroke="none" font-family="Arial" font-size="24px" font-style="normal" font-weight="normal" text-decoration="none" x="0" y="240"></text><text fill="#eeeeee" stroke="none" font-family="Arial" font-size="24px" font-style="normal" font-weight="normal" text-decoration="none" x="0" y="270"></text><text fill="#eeeeee" stroke="none" font-family="Arial" font-size="24px" font-style="normal" font-weight="normal" text-decoration="none" x="0" y="300"></text><text fill="#eeeeee" stroke="none" font-family="Arial" font-size="24px" font-style="normal" font-weight="normal" text-decoration="none" x="0" y="330"></text><text fill="#eeeeee" stroke="none" font-family="Arial" font-size="24px" font-style="normal" font-weight="normal" text-decoration="none" x="0" y="360"></text><text fill="#eeeeee" stroke="none" font-family="Arial" font-size="24px" font-style="normal" font-weight="normal" text-decoration="none" x="0" y="390"></text><text fill="#eeeeee" stroke="none" font-family="Arial" font-size="24px" font-style="normal" font-weight="normal" text-decoration="none" x="0" y="420"></text><text fill="#eeeeee" stroke="none" font-family="Arial" font-size="24px" font-style="normal" font-weight="normal" text-decoration="none" x="0" y="450"></text><text fill="#eeeeee" stroke="none" font-family="Arial" font-size="24px" font-style="normal" font-weight="normal" text-decoration="none" x="0" y="480"></text><text fill="#eeeeee" stroke="none" font-family="Arial" font-size="24px" font-style="normal" font-weight="normal" text-decoration="none" x="0" y="510"></text><text fill="#eeeeee" stroke="none" font-family="Arial" font-size="24px" font-style="normal" font-weight="normal" text-decoration="none" x="0" y="540"></text><text fill="#eeeeee" stroke="none" font-family="Arial" font-size="24px" font-style="normal" font-weight="normal" text-decoration="none" x="0" y="570"></text><text fill="#eeeeee" stroke="none" font-family="Arial" font-size="24px" font-style="normal" font-weight="normal" text-decoration="none" x="0" y="600"></text><text fill="#eeeeee" stroke="none" font-family="Arial" font-size="24px" font-style="normal" font-weight="normal" text-decoration="none" x="0" y="630"></text><text fill="#eeeeee" stroke="none" font-family="Arial" font-size="24px" font-style="normal" font-weight="normal" text-decoration="none" x="0" y="660"></text><text fill="#eeeeee" stroke="none" font-family="Arial" font-size="24px" font-style="normal" font-weight="normal" text-decoration="none" x="200" y="0"></text><text fill="#eeeeee" stroke="none" font-family="Arial" font-size="24px" font-style="normal" font-weight="normal" text-decoration="none" x="200" y="30"></text><text fill="#eeeeee" stroke="none" font-family="Arial" font-size="24px" font-style="normal" font-weight="normal" text-decoration="none" x="200" y="60"></text><text fill="#eeeeee" stroke="none" font-family="Arial" font-size="24px" font-style="normal" font-weight="normal" text-decoration="none" x="200" y="90"></text><text fill="#eeeeee" stroke="none" font-family="Arial" font-size="24px" font-style="normal" font-weight="normal" text-decoration="none" x="200" y="120"></text><text fill="#eeeeee" stroke="none" font-family="Arial" font-size="24px" font-style="normal" font-weight="normal" text-decoration="none" x="200" y="150"></text><text fill="#eeeeee" stroke="none" font-family="Arial" font-size="24px" font-style="normal" font-weight="normal" text-decoration="none" x="200" y="180"></text><text fill="#eeeeee" stroke="none" font-family="Arial" font-size="24px" font-style="normal" font-weight="normal" text-decoration="none" x="200" y="210"></text><text fill="#eeeeee" stroke="none" font-family="Arial" font-size="24px" font-style="normal" font-weight="normal" text-decoration="none" x="200" y="240"></text><text fill="#eeeeee" stroke="none" font-family="Arial" font-size="24px" font-style="normal" font-weight="normal" text-decoration="none" x="200" y="270"></text><text fill="#eeeeee" stroke="none" font-family="Arial" font-size="24px" font-style="normal" font-weight="normal" text-decoration="none" x="200" y="300"></text><text fill="#eeeeee" stroke="none" font-family="Arial" font-size="24px" font-style="normal" font-weight="normal" text-decoration="none" x="200" y="330"></text><text fill="#eeeeee" stroke="none" font-family="Arial" font-size="24px" font-style="normal" font-weight="normal" text-decoration="none" x="200" y="360"></text><text fill="#eeeeee" stroke="none" font-family="Arial" font-size="24px" font-style="normal" font-weight="normal" text-decoration="none" x="200" y="390"></text><text fill="#eeeeee" stroke="none" font-family="Arial" font-size="24px" font-style="normal" font-weight="normal" text-decoration="none" x="200" y="420"></text><text fill="#eeeeee" stroke="none" font-family="Arial" font-size="24px" font-style="normal" font-weight="normal" text-decoration="none" x="200" y="450"></text><text fill="#eeeeee" stroke="none" font-family="Arial" font-size="24px" font-style="normal" font-weight="normal" text-decoration="none" x="200" y="480"></text><text fill="#eeeeee" stroke="none" font-family="Arial" font-size="24px" font-style="normal" font-weight="normal" text-decoration="none" x="200" y="510"></text><text fill="#eeeeee" stroke="none" font-family="Arial" font-size="24px" font-style="normal" font-weight="normal" text-decoration="none" x="200" y="540"></text><text fill="#eeeeee" stroke="none" font-family="Arial" font-size="24px" font-style="normal" font-weight="normal" text-decoration="none" x="200" y="570"></text><text fill="#eeeeee" stroke="none" font-family="Arial" font-size="24px" font-style="normal" font-weight="normal" text-decoration="none" x="200" y="600"></text><text fill="#eeeeee" stroke="none" font-family="Arial" font-size="24px" font-style="normal" font-weight="normal" text-decoration="none" x="200" y="630"></text><text fill="#eeeeee" stroke="none" font-family="Arial" font-size="24px" font-style="normal" font-weight="normal" text-decoration="none" x="200" y="660"></text><text fill="#eeeeee" stroke="none" font-family="Arial" font-size="24px" font-style="normal" font-weight="normal" text-decoration="none" x="400" y="0"></text><text fill="#eeeeee" stroke="none" font-family="Arial" font-size="24px" font-style="normal" font-weight="normal" text-decoration="none" x="400" y="30"></text><text fill="#eeeeee" stroke="none" font-family="Arial" font-size="24px" font-style="normal" font-weight="normal" text-decoration="none" x="400" y="60"></text><text fill="#eeeeee" stroke="none" font-family="Arial" font-size="24px" font-style="normal" font-weight="normal" text-decoration="none" x="400" y="90"></text><text fill="#eeeeee" stroke="none" font-family="Arial" font-size="24px" font-style="normal" font-weight="normal" text-decoration="none" x="400" y="120"></text><text fill="#eeeeee" stroke="none" font-family="Arial" font-size="24px" font-style="normal" font-weight="normal" text-decoration="none" x="400" y="150"></text><text fill="#eeeeee" stroke="none" font-family="Arial" font-size="24px" font-style="normal" font-weight="normal" text-decoration="none" x="400" y="180"></text><text fill="#eeeeee" stroke="none" font-family="Arial" font-size="24px" font-style="normal" font-weight="normal" text-decoration="none" x="400" y="210"></text><text fill="#eeeeee" stroke="none" font-family="Arial" font-size="24px" font-style="normal" font-weight="normal" text-decoration="none" x="400" y="240"></text><text fill="#eeeeee" stroke="none" font-family="Arial" font-size="24px" font-style="normal" font-weight="normal" text-decoration="none" x="400" y="270"></text><text fill="#eeeeee" stroke="none" font-family="Arial" font-size="24px" font-style="normal" font-weight="normal" text-decoration="none" x="400" y="300"></text><text fill="#eeeeee" stroke="none" font-family="Arial" font-size="24px" font-style="normal" font-weight="normal" text-decoration="none" x="400" y="330"></text><text fill="#eeeeee" stroke="none" font-family="Arial" font-size="24px" font-style="normal" font-weight="normal" text-decoration="none" x="400" y="360"></text><text fill="#eeeeee" stroke="none" font-family="Arial" font-size="24px" font-style="normal" font-weight="normal" text-decoration="none" x="400" y="390"></text><text fill="#eeeeee" stroke="none" font-family="Arial" font-size="24px" font-style="normal" font-weight="normal" text-decoration="none" x="400" y="420"></text><text fill="#eeeeee" stroke="none" font-family="Arial" font-size="24px" font-style="normal" font-weight="normal" text-decoration="none" x="400" y="450"></text><text fill="#eeeeee" stroke="none" font-family="Arial" font-size="24px" font-style="normal" font-weight="normal" text-decoration="none" x="400" y="480"></text><text fill="#eeeeee" stroke="none" font-family="Arial" font-size="24px" font-style="normal" font-weight="normal" text-decoration="none" x="400" y="510"></text><text fill="#eeeeee" stroke="none" font-family="Arial" font-size="24px" font-style="normal" font-weight="normal" text-decoration="none" x="400" y="540"></text><text fill="#eeeeee" stroke="none" font-family="Arial" font-size="24px" font-style="normal" font-weight="normal" text-decoration="none" x="400" y="570"></text><text fill="#eeeeee" stroke="none" font-family="Arial" font-size="24px" font-style="normal" font-weight="normal" text-decoration="none" x="400" y="600"></text><text fill="#eeeeee" stroke="none" font-family="Arial" font-size="24px" font-style="normal" font-weight="normal" text-decoration="none" x="400" y="630"></text><text fill="#eeeeee" stroke="none" font-family="Arial" font-size="24px" font-style="normal" font-weight="normal" text-decoration="none" x="400" y="660"></text><text fill="#eeeeee" stroke="none" font-family="Arial" font-size="24px" font-style="normal" font-weight="normal" text-decoration="none" x="600" y="0"></text><text fill="#eeeeee" stroke="none" font-family="Arial" font-size="24px" font-style="normal" font-weight="normal" text-decoration="none" x="600" y="30"></text><text fill="#eeeeee" stroke="none" font-family="Arial" font-size="24px" font-style="normal" font-weight="normal" text-decoration="none" x="600" y="60"></text><text fill="#eeeeee" stroke="none" font-family="Arial" font-size="24px" font-style="normal" font-weight="normal" text-decoration="none" x="600" y="90"></text><text fill="#eeeeee" stroke="none" font-family="Arial" font-size="24px" font-style="normal" font-weight="normal" text-decoration="none" x="600" y="120"></text><text fill="#eeeeee" stroke="none" font-family="Arial" font-size="24px" font-style="normal" font-weight="normal" text-decoration="none" x="600" y="150"></text><text fill="#eeeeee" stroke="none" font-family="Arial" font-size="24px" font-style="normal" font-weight="normal" text-decoration="none" x="600" y="180"></text><text fill="#eeeeee" stroke="none" font-family="Arial" font-size="24px" font-style="normal" font-weight="normal" text-decoration="none" x="600" y="210"></text><text fill="#eeeeee" stroke="none" font-family="Arial" font-size="24px" font-style="normal" font-weight="normal" text-decoration="none" x="600" y="240"></text><text fill="#eeeeee" stroke="none" font-family="Arial" font-size="24px" font-style="normal" font-weight="normal" text-decoration="none" x="600" y="270"></text><text fill="#eeeeee" stroke="none" font-family="Arial" font-size="24px" font-style="normal" font-weight="normal" text-decoration="none" x="600" y="300"></text><text fill="#eeeeee" stroke="none" font-family="Arial" font-size="24px" font-style="normal" font-weight="normal" text-decoration="none" x="600" y="330"></text><text fill="#eeeeee" stroke="none" font-family="Arial" font-size="24px" font-style="normal" font-weight="normal" text-decoration="none" x="600" y="360"></text><text fill="#eeeeee" stroke="none" font-family="Arial" font-size="24px" font-style="normal" font-weight="normal" text-decoration="none" x="600" y="390"></text><text fill="#eeeeee" stroke="none" font-family="Arial" font-size="24px" font-style="normal" font-weight="normal" text-decoration="none" x="600" y="420"></text><text fill="#eeeeee" stroke="none" font-family="Arial" font-size="24px" font-style="normal" font-weight="normal" text-decoration="none" x="600" y="450"></text><text fill="#eeeeee" stroke="none" font-family="Arial" font-size="24px" font-style="normal" font-weight="normal" text-decoration="none" x="600" y="480"></text><text fill="#eeeeee" stroke="none" font-family="Arial" font-size="24px" font-style="normal" font-weight="normal" text-decoration="none" x="600" y="510"></text><text fill="#eeeeee" stroke="none" font-family="Arial" font-size="24px" font-style="normal" font-weight="normal" text-decoration="none" x="600" y="540"></text><text fill="#eeeeee" stroke="none" font-family="Arial" font-size="24px" font-style="normal" font-weight="normal" text-decoration="none" x="600" y="570"></text><text fill="#eeeeee" stroke="none" font-family="Arial" font-size="24px" font-style="normal" font-weight="normal" text-decoration="none" x="600" y="600"></text><text fill="#eeeeee" stroke="none" font-family="Arial" font-size="24px" font-style="normal" font-weight="normal" text-decoration="none" x="600" y="630"></text><text fill="#eeeeee" stroke="none" font-family="Arial" font-size="24px" font-style="normal" font-weight="normal" text-decoration="none" x="600" y="660"></text><g transform="translate(-30,-46) scale(1,1)"><rect fill="#C0C0C0" stroke="none" x="143" y="63" width="400" height="664" opacity="0.2"/></g><g transform="translate(-30,-46) scale(1,1)"><rect fill="#ffffff" stroke="none" x="136" y="56" width="400" height="664"/></g><g transform="translate(-30,-46) scale(1,1)"><path fill="none" stroke="#000000" d="M 136 56 L 536 56 L 536 720 L 136 720 L 136 56 Z Z" stroke-miterlimit="10"/></g><g transform="translate(-30,-46) scale(1,1)"><g><path fill="none" stroke="none"/><text fill="#000000" stroke="none" font-family="Arial" font-size="13px" font-style="normal" font-weight="bold" text-decoration="none" x="295.536865234375" y="75.5">Relevium App</text></g></g><g transform="translate(-30,-46) scale(1,1)"><path fill="#ffffff" stroke="none" d="M 56.248623046875 289.85 C 56.248623046875 284.96227952000004 60.206425414875 281 65.088623046875 281 C 69.970820678875 281 73.928623046875 284.96227952000004 73.928623046875 289.85 C 73.928623046875 294.73772048 69.970820678875 298.7 65.088623046875 298.7 C 60.206425414875 298.7 56.248623046875 294.73772048 56.248623046875 289.85 Z"/></g><g transform="translate(-30,-46) scale(1,1)"><path fill="none" stroke="#000000" d="M 56.248623046875 289.85 C 56.248623046875 284.96227952000004 60.206425414875 281 65.088623046875 281 C 69.970820678875 281 73.928623046875 284.96227952000004 73.928623046875 289.85 C 73.928623046875 294.73772048 69.970820678875 298.7 65.088623046875 298.7 C 60.206425414875 298.7 56.248623046875 294.73772048 56.248623046875 289.85 Z" stroke-miterlimit="10"/></g><g transform="translate(-30,-46) scale(1,1)"><path fill="none" stroke="#000000" d="M 65.088623046875 298.7 L 65.088623046875 316.3" stroke-miterlimit="10"/></g><g transform="translate(-30,-46) scale(1,1)"><path fill="none" stroke="#000000" d="M 55.728623046875 305.3 L 74.448623046875 305.3" stroke-miterlimit="10"/></g><g transform="translate(-30,-46) scale(1,1)"><path fill="none" stroke="#000000" d="M 65.088623046875 316.3 L 52.088623046875 334" stroke-miterlimit="10"/></g><g transform="translate(-30,-46) scale(1,1)"><path fill="none" stroke="#000000" d="M 65.088623046875 316.3 L 78.088623046875 334" stroke-miterlimit="10"/></g><g transform="translate(-30,-46) scale(1,1)"><g><path fill="none" stroke="none"/><text fill="#000000" stroke="none" font-family="Arial" font-size="13px" font-style="normal" font-weight="bold" text-decoration="none" x="51.364990234375" y="354.5">User</text></g></g><g transform="translate(-30,-46) scale(1,1)"><path fill="#ffffff" stroke="none" d="M 696.4093503196023 489.68 C 696.4093503196023 484.886167936 700.2951926445477 481 705.088623046875 481 C 709.8820534492023 481 713.7678957741477 484.886167936 713.7678957741477 489.68 C 713.7678957741477 494.473832064 709.8820534492023 498.36 705.088623046875 498.36 C 700.2951926445477 498.36 696.4093503196023 494.473832064 696.4093503196023 489.68 Z"/></g><g transform="translate(-30,-46) scale(1,1)"><path fill="none" stroke="#000000" d="M 696.4093503196023 489.68 C 696.4093503196023 484.886167936 700.2951926445477 481 705.088623046875 481 C 709.8820534492023 481 713.7678957741477 484.886167936 713.7678957741477 489.68 C 713.7678957741477 494.473832064 709.8820534492023 498.36 705.088623046875 498.36 C 700.2951926445477 498.36 696.4093503196023 494.473832064 696.4093503196023 489.68 Z" stroke-miterlimit="10"/></g><g transform="translate(-30,-46) scale(1,1)"><path fill="none" stroke="#000000" d="M 705.088623046875 498.36 L 705.088623046875 515.64" stroke-miterlimit="10"/></g><g transform="translate(-30,-46) scale(1,1)"><path fill="none" stroke="#000000" d="M 695.8988048650568 504.84 L 714.2784412286932 504.84" stroke-miterlimit="10"/></g><g transform="translate(-30,-46) scale(1,1)"><path fill="none" stroke="#000000" d="M 705.088623046875 515.64 L 692.3249866832386 533" stroke-miterlimit="10"/></g><g transform="translate(-30,-46) scale(1,1)"><path fill="none" stroke="#000000" d="M 705.088623046875 515.64 L 717.8522594105114 533" stroke-miterlimit="10"/></g><g transform="translate(-30,-46) scale(1,1)"><g><path fill="none" stroke="none"/><text fill="#000000" stroke="none" font-family="Arial" font-size="13px" font-style="normal" font-weight="bold" text-decoration="none" x="685.944091796875" y="553.5">Server</text></g></g><g transform="translate(-30,-46) scale(1,1)"><path fill="#C0C0C0" stroke="none" d="M 167 128 C 167 118.6111584 189.6096176 111 217.5 111 C 245.3903824 111 268 118.6111584 268 128 C 268 137.3888416 245.3903824 145 217.5 145 C 189.6096176 145 167 137.3888416 167 128 Z" opacity="0.2"/></g><g transform="translate(-30,-46) scale(1,1)"><path fill="#ffffff" stroke="none" d="M 160 121 C 160 111.6111584 182.6096176 104 210.5 104 C 238.3903824 104 261 111.6111584 261 121 C 261 130.3888416 238.3903824 138 210.5 138 C 182.6096176 138 160 130.3888416 160 121 Z"/></g><g transform="translate(-30,-46) scale(1,1)"><path fill="none" stroke="#000000" d="M 160 121 C 160 111.6111584 182.6096176 104 210.5 104 C 238.3903824 104 261 111.6111584 261 121 C 261 130.3888416 238.3903824 138 210.5 138 C 182.6096176 138 160 130.3888416 160 121 Z" stroke-miterlimit="10"/></g><g transform="translate(-30,-46) scale(1,1)"><g><path fill="none" stroke="none"/><text fill="#000000" stroke="none" font-family="Arial" font-size="13px" font-style="normal" font-weight="bold" text-decoration="none" x="190.260498046875" y="128">Signup</text></g></g><g transform="translate(-30,-46) scale(1,1)"><path fill="#C0C0C0" stroke="none" d="M 191 192 C 191 182.6111584 213.6096176 175 241.5 175 C 269.3903824 175 292 182.6111584 292 192 C 292 201.3888416 269.3903824 209 241.5 209 C 213.6096176 209 191 201.3888416 191 192 Z" opacity="0.2"/></g><g transform="translate(-30,-46) scale(1,1)"><path fill="#ffffff" stroke="none" d="M 184 185 C 184 175.6111584 206.6096176 168 234.5 168 C 262.3903824 168 285 175.6111584 285 185 C 285 194.3888416 262.3903824 202 234.5 202 C 206.6096176 202 184 194.3888416 184 185 Z"/></g><g transform="translate(-30,-46) scale(1,1)"><path fill="none" stroke="#000000" d="M 184 185 C 184 175.6111584 206.6096176 168 234.5 168 C 262.3903824 168 285 175.6111584 285 185 C 285 194.3888416 262.3903824 202 234.5 202 C 206.6096176 202 184 194.3888416 184 185 Z" stroke-miterlimit="10"/></g><g transform="translate(-30,-46) scale(1,1)"><g><path fill="none" stroke="none"/><text fill="#000000" stroke="none" font-family="Arial" font-size="13px" font-style="normal" font-weight="bold" text-decoration="none" x="218.595947265625" y="192">Login</text></g></g><g transform="translate(-30,-46) scale(1,1)"><path fill="#C0C0C0" stroke="none" d="M 351 128 C 351 118.6111584 388.6080768 111 435 111 C 481.3919232 111 519 118.6111584 519 128 C 519 137.3888416 481.3919232 145 435 145 C 388.6080768 145 351 137.3888416 351 128 Z" opacity="0.2"/></g><g transform="translate(-30,-46) scale(1,1)"><path fill="#ffffff" stroke="none" d="M 344 121 C 344 111.6111584 381.6080768 104 428 104 C 474.3919232 104 512 111.6111584 512 121 C 512 130.3888416 474.3919232 138 428 138 C 381.6080768 138 344 130.3888416 344 121 Z"/></g><g transform="translate(-30,-46) scale(1,1)"><path fill="none" stroke="#000000" d="M 344 121 C 344 111.6111584 381.6080768 104 428 104 C 474.3919232 104 512 111.6111584 512 121 C 512 130.3888416 474.3919232 138 428 138 C 381.6080768 138 344 130.3888416 344 121 Z" stroke-miterlimit="10"/></g><g transform="translate(-30,-46) scale(1,1)"><g><path fill="none" stroke="none"/><text fill="#000000" stroke="none" font-family="Arial" font-size="13px" font-style="normal" font-weight="bold" text-decoration="none" x="377.06005859375" y="128">Verify Credentials</text></g></g><g transform="translate(-30,-46) scale(1,1)"><path fill="#C0C0C0" stroke="none" d="M 335 232 C 335 222.6111584 375.9659408 215 426.5 215 C 477.0340592 215 518 222.6111584 518 232 C 518 241.3888416 477.0340592 249 426.5 249 C 375.9659408 249 335 241.3888416 335 232 Z" opacity="0.2"/></g><g transform="translate(-30,-46) scale(1,1)"><path fill="#ffffff" stroke="none" d="M 328 225 C 328 215.6111584 368.9659408 208 419.5 208 C 470.0340592 208 511 215.6111584 511 225 C 511 234.3888416 470.0340592 242 419.5 242 C 368.9659408 242 328 234.3888416 328 225 Z"/></g><g transform="translate(-30,-46) scale(1,1)"><path fill="none" stroke="#000000" d="M 328 225 C 328 215.6111584 368.9659408 208 419.5 208 C 470.0340592 208 511 215.6111584 511 225 C 511 234.3888416 470.0340592 242 419.5 242 C 368.9659408 242 328 234.3888416 328 225 Z" stroke-miterlimit="10"/></g><g transform="translate(-30,-46) scale(1,1)"><g><path fill="none" stroke="none"/><text fill="#000000" stroke="none" font-family="Arial" font-size="13px" font-style="normal" font-weight="bold" text-decoration="none" x="364.227783203125" y="232">Display Login Error</text></g></g><g transform="translate(-30,-46) scale(1,1)"><path fill="#C0C0C0" stroke="none" d="M 247 288 C 247 278.6111584 283.4887888 271 328.5 271 C 373.5112112 271 410 278.6111584 410 288 C 410 297.3888416 373.5112112 305 328.5 305 C 283.4887888 305 247 297.3888416 247 288 Z" opacity="0.2"/></g><g transform="translate(-30,-46) scale(1,1)"><path fill="#ffffff" stroke="none" d="M 240 281 C 240 271.6111584 276.4887888 264 321.5 264 C 366.5112112 264 403 271.6111584 403 281 C 403 290.3888416 366.5112112 298 321.5 298 C 276.4887888 298 240 290.3888416 240 281 Z"/></g><g transform="translate(-30,-46) scale(1,1)"><path fill="none" stroke="#000000" d="M 240 281 C 240 271.6111584 276.4887888 264 321.5 264 C 366.5112112 264 403 271.6111584 403 281 C 403 290.3888416 366.5112112 298 321.5 298 C 276.4887888 298 240 290.3888416 240 281 Z" stroke-miterlimit="10"/></g><g transform="translate(-30,-46) scale(1,1)"><g><path fill="none" stroke="none"/><text fill="#000000" stroke="none" font-family="Arial" font-size="13px" font-style="normal" font-weight="bold" text-decoration="none" x="272.00732421875" y="288">Interact with Map</text></g></g><g transform="translate(-30,-46) scale(1,1)"><path fill="#C0C0C0" stroke="none" d="M 167 392 C 167 382.6111584 198.1162064 375 236.5 375 C 274.8837936 375 306 382.6111584 306 392 C 306 401.3888416 274.8837936 409 236.5 409 C 198.1162064 409 167 401.3888416 167 392 Z" opacity="0.2"/></g><g transform="translate(-30,-46) scale(1,1)"><path fill="#ffffff" stroke="none" d="M 160 385 C 160 375.6111584 191.1162064 368 229.5 368 C 267.8837936 368 299 375.6111584 299 385 C 299 394.3888416 267.8837936 402 229.5 402 C 191.1162064 402 160 394.3888416 160 385 Z"/></g><g transform="translate(-30,-46) scale(1,1)"><path fill="none" stroke="#000000" d="M 160 385 C 160 375.6111584 191.1162064 368 229.5 368 C 267.8837936 368 299 375.6111584 299 385 C 299 394.3888416 267.8837936 402 229.5 402 C 191.1162064 402 160 394.3888416 160 385 Z" stroke-miterlimit="10"/></g><g transform="translate(-30,-46) scale(1,1)"><g><path fill="none" stroke="none"/><text fill="#000000" stroke="none" font-family="Arial" font-size="13px" font-style="normal" font-weight="bold" text-decoration="none" x="187.589599609375" y="392">Show Shelters</text></g></g><g transform="translate(-30,-46) scale(1,1)"><path fill="#C0C0C0" stroke="none" d="M 335 392 C 335 382.6111584 377.3090864 375 429.5 375 C 481.6909136 375 524 382.6111584 524 392 C 524 401.3888416 481.6909136 409 429.5 409 C 377.3090864 409 335 401.3888416 335 392 Z" opacity="0.2"/></g><g transform="translate(-30,-46) scale(1,1)"><path fill="#ffffff" stroke="none" d="M 328 385 C 328 375.6111584 370.3090864 368 422.5 368 C 474.6909136 368 517 375.6111584 517 385 C 517 394.3888416 474.6909136 402 422.5 402 C 370.3090864 402 328 394.3888416 328 385 Z"/></g><g transform="translate(-30,-46) scale(1,1)"><path fill="none" stroke="#000000" d="M 328 385 C 328 375.6111584 370.3090864 368 422.5 368 C 474.6909136 368 517 375.6111584 517 385 C 517 394.3888416 474.6909136 402 422.5 402 C 370.3090864 402 328 394.3888416 328 385 Z" stroke-miterlimit="10"/></g><g transform="translate(-30,-46) scale(1,1)"><g><path fill="none" stroke="none"/><text fill="#000000" stroke="none" font-family="Arial" font-size="13px" font-style="normal" font-weight="bold" text-decoration="none" x="363.24462890625" y="392">Show Danger Zones</text></g></g><g transform="translate(-30,-46) scale(1,1)"><path fill="none" stroke="#000000" d="M 432 368 L 432 344 L 328 344 L 328 298" stroke-miterlimit="10"/></g><g transform="translate(-30,-46) scale(1,1)"><path fill="#FFFFFF" stroke="none" d="M 336.419035512032 318.3253497152483 L 328 298 L 319.580964487968 318.3253497152483"/></g><g transform="translate(-30,-46) scale(1,1)"><path fill="none" stroke="#000000" d="M 336.419035512032 318.3253497152483 L 328 298 L 319.580964487968 318.3253497152483 L 336.419035512032 318.3253497152483" stroke-miterlimit="10"/></g><g transform="translate(-30,-46) scale(1,1)"><path fill="none" stroke="#000000" d="M 224 368 L 224 344 L 328 344 L 328 298" stroke-miterlimit="10"/></g><g transform="translate(-30,-46) scale(1,1)"><path fill="#FFFFFF" stroke="none" d="M 336.419035512032 318.3253497152483 L 328 298 L 319.580964487968 318.3253497152483"/></g><g transform="translate(-30,-46) scale(1,1)"><path fill="none" stroke="#000000" d="M 336.419035512032 318.3253497152483 L 328 298 L 319.580964487968 318.3253497152483 L 336.419035512032 318.3253497152483" stroke-miterlimit="10"/></g><g transform="translate(-30,-46) scale(1,1)"><path fill="#C0C0C0" stroke="none" d="M 255 448 C 255 438.6111584 277.6096176 431 305.5 431 C 333.3903824 431 356 438.6111584 356 448 C 356 457.3888416 333.3903824 465 305.5 465 C 277.6096176 465 255 457.3888416 255 448 Z" opacity="0.2"/></g><g transform="translate(-30,-46) scale(1,1)"><path fill="#ffffff" stroke="none" d="M 248 441 C 248 431.6111584 270.6096176 424 298.5 424 C 326.3903824 424 349 431.6111584 349 441 C 349 450.3888416 326.3903824 458 298.5 458 C 270.6096176 458 248 450.3888416 248 441 Z"/></g><g transform="translate(-30,-46) scale(1,1)"><path fill="none" stroke="#000000" d="M 248 441 C 248 431.6111584 270.6096176 424 298.5 424 C 326.3903824 424 349 431.6111584 349 441 C 349 450.3888416 326.3903824 458 298.5 458 C 270.6096176 458 248 450.3888416 248 441 Z" stroke-miterlimit="10"/></g><g transform="translate(-30,-46) scale(1,1)"><g><path fill="none" stroke="none"/><text fill="#000000" stroke="none" font-family="Arial" font-size="13px" font-style="normal" font-weight="bold" text-decoration="none" x="284.77001953125" y="448">Chat</text></g></g><g transform="translate(-30,-46) scale(1,1)"><path fill="#C0C0C0" stroke="none" d="M 383 488 C 383 478.6111584 405.6096176 471 433.5 471 C 461.3903824 471 484 478.6111584 484 488 C 484 497.3888416 461.3903824 505 433.5 505 C 405.6096176 505 383 497.3888416 383 488 Z" opacity="0.2"/></g><g transform="translate(-30,-46) scale(1,1)"><path fill="#ffffff" stroke="none" d="M 376 481 C 376 471.6111584 398.6096176 464 426.5 464 C 454.3903824 464 477 471.6111584 477 481 C 477 490.3888416 454.3903824 498 426.5 498 C 398.6096176 498 376 490.3888416 376 481 Z"/></g><g transform="translate(-30,-46) scale(1,1)"><path fill="none" stroke="#000000" d="M 376 481 C 376 471.6111584 398.6096176 464 426.5 464 C 454.3903824 464 477 471.6111584 477 481 C 477 490.3888416 454.3903824 498 426.5 498 C 398.6096176 498 376 490.3888416 376 481 Z" stroke-miterlimit="10"/></g><g transform="translate(-30,-46) scale(1,1)"><g><path fill="none" stroke="none"/><text fill="#000000" stroke="none" font-family="Arial" font-size="13px" font-style="normal" font-weight="bold" text-decoration="none" x="401.92822265625" y="488">chatP2P</text></g></g><g transform="translate(-30,-46) scale(1,1)"><path fill="#C0C0C0" stroke="none" d="M 159 520 C 159 510.6111584 192.80249759999998 503 234.5 503 C 276.1975024 503 310 510.6111584 310 520 C 310 529.3888416 276.1975024 537 234.5 537 C 192.80249759999998 537 159 529.3888416 159 520 Z" opacity="0.2"/></g><g transform="translate(-30,-46) scale(1,1)"><path fill="#ffffff" stroke="none" d="M 152 513 C 152 503.6111584 185.80249759999998 496 227.5 496 C 269.1975024 496 303 503.6111584 303 513 C 303 522.3888416 269.1975024 530 227.5 530 C 185.80249759999998 530 152 522.3888416 152 513 Z"/></g><g transform="translate(-30,-46) scale(1,1)"><path fill="none" stroke="#000000" d="M 152 513 C 152 503.6111584 185.80249759999998 496 227.5 496 C 269.1975024 496 303 503.6111584 303 513 C 303 522.3888416 269.1975024 530 227.5 530 C 185.80249759999998 530 152 522.3888416 152 513 Z" stroke-miterlimit="10"/></g><g transform="translate(-30,-46) scale(1,1)"><g><path fill="none" stroke="none"/><text fill="#000000" stroke="none" font-family="Arial" font-size="13px" font-style="normal" font-weight="bold" text-decoration="none" x="182.339599609375" y="520">Show life hacks</text></g></g><g transform="translate(-30,-46) scale(1,1)"><path fill="#C0C0C0" stroke="none" d="M 319 560 C 319 550.6111584 363.0999472 543 417.5 543 C 471.9000528 543 516 550.6111584 516 560 C 516 569.3888416 471.9000528 577 417.5 577 C 363.0999472 577 319 569.3888416 319 560 Z" opacity="0.2"/></g><g transform="translate(-30,-46) scale(1,1)"><path fill="#ffffff" stroke="none" d="M 312 553 C 312 543.6111584 356.0999472 536 410.5 536 C 464.9000528 536 509 543.6111584 509 553 C 509 562.3888416 464.9000528 570 410.5 570 C 356.0999472 570 312 562.3888416 312 553 Z"/></g><g transform="translate(-30,-46) scale(1,1)"><path fill="none" stroke="#000000" d="M 312 553 C 312 543.6111584 356.0999472 536 410.5 536 C 464.9000528 536 509 543.6111584 509 553 C 509 562.3888416 464.9000528 570 410.5 570 C 356.0999472 570 312 562.3888416 312 553 Z" stroke-miterlimit="10"/></g><g transform="translate(-30,-46) scale(1,1)"><g><path fill="none" stroke="none"/><text fill="#000000" stroke="none" font-family="Arial" font-size="13px" font-style="normal" font-weight="bold" text-decoration="none" x="351.24462890625" y="560">check user condition</text></g></g><g transform="translate(-30,-46) scale(1,1)"><path fill="#C0C0C0" stroke="none" d="M 207 616 C 207 606.6111584 236.7730608 599 273.5 599 C 310.2269392 599 340 606.6111584 340 616 C 340 625.3888416 310.2269392 633 273.5 633 C 236.7730608 633 207 625.3888416 207 616 Z" opacity="0.2"/></g><g transform="translate(-30,-46) scale(1,1)"><path fill="#ffffff" stroke="none" d="M 200 609 C 200 599.6111584 229.7730608 592 266.5 592 C 303.2269392 592 333 599.6111584 333 609 C 333 618.3888416 303.2269392 626 266.5 626 C 229.7730608 626 200 618.3888416 200 609 Z"/></g><g transform="translate(-30,-46) scale(1,1)"><path fill="none" stroke="#000000" d="M 200 609 C 200 599.6111584 229.7730608 592 266.5 592 C 303.2269392 592 333 599.6111584 333 609 C 333 618.3888416 303.2269392 626 266.5 626 C 229.7730608 626 200 618.3888416 200 609 Z" stroke-miterlimit="10"/></g><g transform="translate(-30,-46) scale(1,1)"><g><path fill="none" stroke="none"/><text fill="#000000" stroke="none" font-family="Arial" font-size="13px" font-style="normal" font-weight="bold" text-decoration="none" x="226.754150390625" y="616">Chat with app</text></g></g><g transform="translate(-30,-46) scale(1,1)"><path fill="#C0C0C0" stroke="none" d="M 231 680 C 231 670.6111584 266.81721600000003 663 311 663 C 355.18278399999997 663 391 670.6111584 391 680 C 391 689.3888416 355.18278399999997 697 311 697 C 266.81721600000003 697 231 689.3888416 231 680 Z" opacity="0.2"/></g><g transform="translate(-30,-46) scale(1,1)"><path fill="#ffffff" stroke="none" d="M 224 673 C 224 663.6111584 259.81721600000003 656 304 656 C 348.18278399999997 656 384 663.6111584 384 673 C 384 682.3888416 348.18278399999997 690 304 690 C 259.81721600000003 690 224 682.3888416 224 673 Z"/></g><g transform="translate(-30,-46) scale(1,1)"><path fill="none" stroke="#000000" d="M 224 673 C 224 663.6111584 259.81721600000003 656 304 656 C 348.18278399999997 656 384 663.6111584 384 673 C 384 682.3888416 348.18278399999997 690 304 690 C 259.81721600000003 690 224 682.3888416 224 673 Z" stroke-miterlimit="10"/></g><g transform="translate(-30,-46) scale(1,1)"><g><path fill="none" stroke="none"/><text fill="#000000" stroke="none" font-family="Arial" font-size="13px" font-style="normal" font-weight="bold" text-decoration="none" x="254.85009765625" y="680">Speak to the app</text></g></g><g transform="translate(-30,-46) scale(1,1)"><path fill="none" stroke="#000000" d="M 64 280 L 64 120 L 160 120" stroke-miterlimit="10"/></g><g transform="translate(-30,-46) scale(1,1)"><path fill="none" stroke="#000000" d="M 184 192 L 120 192 L 120 303 L 90 303" stroke-miterlimit="10"/></g><g transform="translate(-30,-46) scale(1,1)"><path fill="none" stroke="#000000" d="M 160 385 L 96 385 L 96 328 L 90 328" stroke-miterlimit="10"/></g><g transform="translate(-30,-46) scale(1,1)"><path fill="none" stroke="#000000" d="M 248 441 L 80 441 L 80 360" stroke-miterlimit="10"/></g><g transform="translate(-30,-46) scale(1,1)"><path fill="none" stroke="#000000" d="M 152 513 L 72 513 L 72 360" stroke-miterlimit="10"/></g><g transform="translate(-30,-46) scale(1,1)"><path fill="none" stroke="#000000" d="M 200 609 L 65 609 L 65 360" stroke-miterlimit="10"/></g><g transform="translate(-30,-46) scale(1,1)"><path fill="#ffffff" stroke="none" d="M 682.3502682883523 177.68 C 682.3502682883523 172.886167936 686.2361106132977 169 691.029541015625 169 C 695.8229714179523 169 699.7088137428977 172.886167936 699.7088137428977 177.68 C 699.7088137428977 182.47383206400002 695.8229714179523 186.36 691.029541015625 186.36 C 686.2361106132977 186.36 682.3502682883523 182.47383206400002 682.3502682883523 177.68 Z"/></g><g transform="translate(-30,-46) scale(1,1)"><path fill="none" stroke="#000000" d="M 682.3502682883523 177.68 C 682.3502682883523 172.886167936 686.2361106132977 169 691.029541015625 169 C 695.8229714179523 169 699.7088137428977 172.886167936 699.7088137428977 177.68 C 699.7088137428977 182.47383206400002 695.8229714179523 186.36 691.029541015625 186.36 C 686.2361106132977 186.36 682.3502682883523 182.47383206400002 682.3502682883523 177.68 Z" stroke-miterlimit="10"/></g><g transform="translate(-30,-46) scale(1,1)"><path fill="none" stroke="#000000" d="M 691.029541015625 186.36 L 691.029541015625 203.64" stroke-miterlimit="10"/></g><g transform="translate(-30,-46) scale(1,1)"><path fill="none" stroke="#000000" d="M 681.8397228338068 192.84 L 700.2193591974432 192.84" stroke-miterlimit="10"/></g><g transform="translate(-30,-46) scale(1,1)"><path fill="none" stroke="#000000" d="M 691.029541015625 203.64 L 678.2659046519886 221" stroke-miterlimit="10"/></g><g transform="translate(-30,-46) scale(1,1)"><path fill="none" stroke="#000000" d="M 691.029541015625 203.64 L 703.7931773792614 221" stroke-miterlimit="10"/></g><g transform="translate(-30,-46) scale(1,1)"><g><path fill="none" stroke="none"/><text fill="#000000" stroke="none" font-family="Arial" font-size="13px" font-style="normal" font-weight="bold" text-decoration="none" x="639.721435546875" y="241.5">Geo-Location API</text></g></g><g transform="translate(-30,-46) scale(1,1)"><path fill="none" stroke="#000000" d="M 403 280 L 688 280 L 688 247" stroke-miterlimit="10"/></g><g transform="translate(-30,-46) scale(1,1)"><path fill="none" stroke="#000000" d="M 376 480 L 298 480 L 298 458" stroke-miterlimit="10" stroke-dasharray="3"/></g><g transform="translate(-30,-46) scale(1,1)"><path fill="none" stroke="#000000" d="M 302.209517756016 468.16267485762415 L 298 458 L 293.790482243984 468.16267485762415" stroke-miterlimit="10"/></g><g transform="translate(-30,-46) scale(1,1)"><g><path fill="none" stroke="none"/><text fill="#000000" stroke="none" font-family="Arial" font-size="13px" font-style="normal" font-weight="normal" text-decoration="none" x="309.5" y="474.5">«extend»</text></g></g><g transform="translate(-30,-46) scale(1,1)"><path fill="none" stroke="#000000" d="M 349 440 L 704 440 L 704 480" stroke-miterlimit="10"/></g><g transform="translate(-30,-46) scale(1,1)"><path fill="none" stroke="#000000" d="M 333 608 L 696 608 L 696 559" stroke-miterlimit="10"/></g><g transform="translate(-30,-46) scale(1,1)"><path fill="none" stroke="#000000" d="M 384 673 L 705 673 L 705 559" stroke-miterlimit="10"/></g><g transform="translate(-30,-46) scale(1,1)"><path fill="none" stroke="#000000" d="M 90 316 L 176 316 L 176 280 L 240 280" stroke-miterlimit="10"/></g><g transform="translate(-30,-46) scale(1,1)"><path fill="none" stroke="#000000" d="M 328 224 L 232 224 L 232 202" stroke-miterlimit="10" stroke-dasharray="3"/></g><g transform="translate(-30,-46) scale(1,1)"><path fill="none" stroke="#000000" d="M 236.209517756016 212.16267485762415 L 232 202 L 227.790482243984 212.16267485762415" stroke-miterlimit="10"/></g><g transform="translate(-30,-46) scale(1,1)"><g><path fill="none" stroke="none"/><text fill="#000000" stroke="none" font-family="Arial" font-size="13px" font-style="normal" font-weight="normal" text-decoration="none" x="254.5" y="219.5">«extend»</text></g></g><g transform="translate(-30,-46) scale(1,1)"><path fill="none" stroke="#000000" d="M 224 673 L 56 673 L 56 360" stroke-miterlimit="10"/></g><g transform="translate(-30,-46) scale(1,1)"><path fill="none" stroke="#000000" d="M 262 121 L 343 121" stroke-miterlimit="10" stroke-dasharray="3"/></g><g transform="translate(-30,-46) scale(1,1)"><path fill="none" stroke="#000000" d="M 332.83732514237585 125.20951775601598 L 343 121 L 332.83732514237585 116.79048224398402" stroke-miterlimit="10"/></g><g transform="translate(-30,-46) scale(1,1)"><g><path fill="none" stroke="none"/><text fill="#000000" stroke="none" font-family="Arial" font-size="13px" font-style="normal" font-weight="normal" text-decoration="none" x="271.5" y="115.5">«include»</text></g></g><g transform="translate(-30,-46) scale(1,1)"><path fill="none" stroke="#000000" d="M 224 530 L 224 552 L 312 552" stroke-miterlimit="10" stroke-dasharray="3"/></g><g transform="translate(-30,-46) scale(1,1)"><path fill="none" stroke="#000000" d="M 301.83732514237585 556.209517756016 L 312 552 L 301.83732514237585 547.790482243984" stroke-miterlimit="10"/></g><g transform="translate(-30,-46) scale(1,1)"><g><path fill="none" stroke="none"/><text fill="#000000" stroke="none" font-family="Arial" font-size="13px" font-style="normal" font-weight="normal" text-decoration="none" x="239.5" y="548.5">«include»</text></g></g></g></svg>